<svg xmlns="http://www.w3.org/2000/svg" xmlns:xlink="http://www.w3.org/1999/xlink" width="600" height="400" viewBox="0 0 2400 1600">
<defs>
  <clipPath id="clip410">
    <rect x="0" y="0" width="2400" height="1600"></rect>
  </clipPath>
</defs>
<path clip-path="url(#clip410)" d="M0 1600 L2400 1600 L2400 0 L0 0  Z" fill="#ffffff" fill-rule="evenodd" fill-opacity="1"></path>
<defs>
  <clipPath id="clip411">
    <rect x="480" y="0" width="1681" height="1600"></rect>
  </clipPath>
</defs>
<path clip-path="url(#clip410)" d="M219.866 1423.18 L2352.76 1423.18 L2352.76 47.2441 L219.866 47.2441  Z" fill="#ffffff" fill-rule="evenodd" fill-opacity="1"></path>
<defs>
  <clipPath id="clip412">
    <rect x="219" y="47" width="2134" height="1377"></rect>
  </clipPath>
</defs>
<polyline clip-path="url(#clip412)" style="stroke:#000000; stroke-linecap:round; stroke-linejoin:round; stroke-width:2; stroke-opacity:0.1; fill:none" points="276.207,1423.18 276.207,47.2441 "></polyline>
<polyline clip-path="url(#clip412)" style="stroke:#000000; stroke-linecap:round; stroke-linejoin:round; stroke-width:2; stroke-opacity:0.1; fill:none" points="678.639,1423.18 678.639,47.2441 "></polyline>
<polyline clip-path="url(#clip412)" style="stroke:#000000; stroke-linecap:round; stroke-linejoin:round; stroke-width:2; stroke-opacity:0.1; fill:none" points="1081.07,1423.18 1081.07,47.2441 "></polyline>
<polyline clip-path="url(#clip412)" style="stroke:#000000; stroke-linecap:round; stroke-linejoin:round; stroke-width:2; stroke-opacity:0.1; fill:none" points="1483.5,1423.18 1483.5,47.2441 "></polyline>
<polyline clip-path="url(#clip412)" style="stroke:#000000; stroke-linecap:round; stroke-linejoin:round; stroke-width:2; stroke-opacity:0.1; fill:none" points="1885.93,1423.18 1885.93,47.2441 "></polyline>
<polyline clip-path="url(#clip412)" style="stroke:#000000; stroke-linecap:round; stroke-linejoin:round; stroke-width:2; stroke-opacity:0.1; fill:none" points="2288.37,1423.18 2288.37,47.2441 "></polyline>
<polyline clip-path="url(#clip410)" style="stroke:#000000; stroke-linecap:round; stroke-linejoin:round; stroke-width:4; stroke-opacity:1; fill:none" points="219.866,1423.18 2352.76,1423.18 "></polyline>
<polyline clip-path="url(#clip410)" style="stroke:#000000; stroke-linecap:round; stroke-linejoin:round; stroke-width:4; stroke-opacity:1; fill:none" points="276.207,1423.18 276.207,1404.28 "></polyline>
<polyline clip-path="url(#clip410)" style="stroke:#000000; stroke-linecap:round; stroke-linejoin:round; stroke-width:4; stroke-opacity:1; fill:none" points="678.639,1423.18 678.639,1404.28 "></polyline>
<polyline clip-path="url(#clip410)" style="stroke:#000000; stroke-linecap:round; stroke-linejoin:round; stroke-width:4; stroke-opacity:1; fill:none" points="1081.07,1423.18 1081.07,1404.28 "></polyline>
<polyline clip-path="url(#clip410)" style="stroke:#000000; stroke-linecap:round; stroke-linejoin:round; stroke-width:4; stroke-opacity:1; fill:none" points="1483.5,1423.18 1483.5,1404.28 "></polyline>
<polyline clip-path="url(#clip410)" style="stroke:#000000; stroke-linecap:round; stroke-linejoin:round; stroke-width:4; stroke-opacity:1; fill:none" points="1885.93,1423.18 1885.93,1404.28 "></polyline>
<polyline clip-path="url(#clip410)" style="stroke:#000000; stroke-linecap:round; stroke-linejoin:round; stroke-width:4; stroke-opacity:1; fill:none" points="2288.37,1423.18 2288.37,1404.28 "></polyline>
<path clip-path="url(#clip410)" d="M276.207 1454.1 Q272.596 1454.1 270.767 1457.66 Q268.961 1461.2 268.961 1468.33 Q268.961 1475.44 270.767 1479.01 Q272.596 1482.55 276.207 1482.55 Q279.841 1482.55 281.647 1479.01 Q283.475 1475.44 283.475 1468.33 Q283.475 1461.2 281.647 1457.66 Q279.841 1454.1 276.207 1454.1 M276.207 1450.39 Q282.017 1450.39 285.072 1455 Q288.151 1459.58 288.151 1468.33 Q288.151 1477.06 285.072 1481.67 Q282.017 1486.25 276.207 1486.25 Q270.397 1486.25 267.318 1481.67 Q264.262 1477.06 264.262 1468.33 Q264.262 1459.58 267.318 1455 Q270.397 1450.39 276.207 1450.39 Z" fill="#000000" fill-rule="nonzero" fill-opacity="1"></path><path clip-path="url(#clip410)" d="M638.245 1481.64 L645.884 1481.64 L645.884 1455.28 L637.574 1456.95 L637.574 1452.69 L645.838 1451.02 L650.514 1451.02 L650.514 1481.64 L658.153 1481.64 L658.153 1485.58 L638.245 1485.58 L638.245 1481.64 Z" fill="#000000" fill-rule="nonzero" fill-opacity="1"></path><path clip-path="url(#clip410)" d="M677.597 1454.1 Q673.986 1454.1 672.157 1457.66 Q670.352 1461.2 670.352 1468.33 Q670.352 1475.44 672.157 1479.01 Q673.986 1482.55 677.597 1482.55 Q681.231 1482.55 683.037 1479.01 Q684.866 1475.44 684.866 1468.33 Q684.866 1461.2 683.037 1457.66 Q681.231 1454.1 677.597 1454.1 M677.597 1450.39 Q683.407 1450.39 686.463 1455 Q689.541 1459.58 689.541 1468.33 Q689.541 1477.06 686.463 1481.67 Q683.407 1486.25 677.597 1486.25 Q671.787 1486.25 668.708 1481.67 Q665.653 1477.06 665.653 1468.33 Q665.653 1459.58 668.708 1455 Q671.787 1450.39 677.597 1450.39 Z" fill="#000000" fill-rule="nonzero" fill-opacity="1"></path><path clip-path="url(#clip410)" d="M707.759 1454.1 Q704.148 1454.1 702.319 1457.66 Q700.514 1461.2 700.514 1468.33 Q700.514 1475.44 702.319 1479.01 Q704.148 1482.55 707.759 1482.55 Q711.393 1482.55 713.199 1479.01 Q715.027 1475.44 715.027 1468.33 Q715.027 1461.2 713.199 1457.66 Q711.393 1454.1 707.759 1454.1 M707.759 1450.39 Q713.569 1450.39 716.625 1455 Q719.703 1459.58 719.703 1468.33 Q719.703 1477.06 716.625 1481.67 Q713.569 1486.25 707.759 1486.25 Q701.949 1486.25 698.87 1481.67 Q695.815 1477.06 695.815 1468.33 Q695.815 1459.58 698.87 1455 Q701.949 1450.39 707.759 1450.39 Z" fill="#000000" fill-rule="nonzero" fill-opacity="1"></path><path clip-path="url(#clip410)" d="M1044.76 1481.64 L1061.08 1481.64 L1061.08 1485.58 L1039.14 1485.58 L1039.14 1481.64 Q1041.8 1478.89 1046.38 1474.26 Q1050.99 1469.61 1052.17 1468.27 Q1054.42 1465.74 1055.3 1464.01 Q1056.2 1462.25 1056.2 1460.56 Q1056.2 1457.8 1054.25 1456.07 Q1052.33 1454.33 1049.23 1454.33 Q1047.03 1454.33 1044.58 1455.09 Q1042.15 1455.86 1039.37 1457.41 L1039.37 1452.69 Q1042.19 1451.55 1044.65 1450.97 Q1047.1 1450.39 1049.14 1450.39 Q1054.51 1450.39 1057.7 1453.08 Q1060.9 1455.77 1060.9 1460.26 Q1060.9 1462.39 1060.09 1464.31 Q1059.3 1466.2 1057.19 1468.8 Q1056.61 1469.47 1053.51 1472.69 Q1050.41 1475.88 1044.76 1481.64 Z" fill="#000000" fill-rule="nonzero" fill-opacity="1"></path><path clip-path="url(#clip410)" d="M1080.9 1454.1 Q1077.29 1454.1 1075.46 1457.66 Q1073.65 1461.2 1073.65 1468.33 Q1073.65 1475.44 1075.46 1479.01 Q1077.29 1482.55 1080.9 1482.55 Q1084.53 1482.55 1086.34 1479.01 Q1088.17 1475.44 1088.17 1468.33 Q1088.17 1461.2 1086.34 1457.66 Q1084.53 1454.1 1080.9 1454.1 M1080.9 1450.39 Q1086.71 1450.39 1089.76 1455 Q1092.84 1459.58 1092.84 1468.33 Q1092.84 1477.06 1089.76 1481.67 Q1086.71 1486.25 1080.9 1486.25 Q1075.09 1486.25 1072.01 1481.67 Q1068.95 1477.06 1068.95 1468.33 Q1068.95 1459.58 1072.01 1455 Q1075.09 1450.39 1080.9 1450.39 Z" fill="#000000" fill-rule="nonzero" fill-opacity="1"></path><path clip-path="url(#clip410)" d="M1111.06 1454.1 Q1107.45 1454.1 1105.62 1457.66 Q1103.81 1461.2 1103.81 1468.33 Q1103.81 1475.44 1105.62 1479.01 Q1107.45 1482.55 1111.06 1482.55 Q1114.69 1482.55 1116.5 1479.01 Q1118.33 1475.44 1118.33 1468.33 Q1118.33 1461.2 1116.5 1457.66 Q1114.69 1454.1 1111.06 1454.1 M1111.06 1450.39 Q1116.87 1450.39 1119.92 1455 Q1123 1459.58 1123 1468.33 Q1123 1477.06 1119.92 1481.67 Q1116.87 1486.25 1111.06 1486.25 Q1105.25 1486.25 1102.17 1481.67 Q1099.11 1477.06 1099.11 1468.33 Q1099.11 1459.58 1102.17 1455 Q1105.25 1450.39 1111.06 1450.39 Z" fill="#000000" fill-rule="nonzero" fill-opacity="1"></path><path clip-path="url(#clip410)" d="M1457.26 1466.95 Q1460.62 1467.66 1462.5 1469.93 Q1464.39 1472.2 1464.39 1475.53 Q1464.39 1480.65 1460.88 1483.45 Q1457.36 1486.25 1450.88 1486.25 Q1448.7 1486.25 1446.38 1485.81 Q1444.09 1485.39 1441.64 1484.54 L1441.64 1480.02 Q1443.58 1481.16 1445.9 1481.74 Q1448.21 1482.32 1450.74 1482.32 Q1455.13 1482.32 1457.43 1480.58 Q1459.74 1478.84 1459.74 1475.53 Q1459.74 1472.48 1457.59 1470.77 Q1455.46 1469.03 1451.64 1469.03 L1447.61 1469.03 L1447.61 1465.19 L1451.82 1465.19 Q1455.27 1465.19 1457.1 1463.82 Q1458.93 1462.43 1458.93 1459.84 Q1458.93 1457.18 1457.03 1455.77 Q1455.16 1454.33 1451.64 1454.33 Q1449.72 1454.33 1447.52 1454.75 Q1445.32 1455.16 1442.68 1456.04 L1442.68 1451.88 Q1445.34 1451.14 1447.66 1450.77 Q1450 1450.39 1452.06 1450.39 Q1457.38 1450.39 1460.48 1452.83 Q1463.58 1455.23 1463.58 1459.35 Q1463.58 1462.22 1461.94 1464.21 Q1460.3 1466.18 1457.26 1466.95 Z" fill="#000000" fill-rule="nonzero" fill-opacity="1"></path><path clip-path="url(#clip410)" d="M1483.26 1454.1 Q1479.65 1454.1 1477.82 1457.66 Q1476.01 1461.2 1476.01 1468.33 Q1476.01 1475.44 1477.82 1479.01 Q1479.65 1482.55 1483.26 1482.55 Q1486.89 1482.55 1488.7 1479.01 Q1490.53 1475.44 1490.53 1468.33 Q1490.53 1461.2 1488.7 1457.66 Q1486.89 1454.1 1483.26 1454.1 M1483.26 1450.39 Q1489.07 1450.39 1492.13 1455 Q1495.2 1459.58 1495.2 1468.33 Q1495.2 1477.06 1492.13 1481.67 Q1489.07 1486.25 1483.26 1486.25 Q1477.45 1486.25 1474.37 1481.67 Q1471.32 1477.06 1471.32 1468.33 Q1471.32 1459.58 1474.37 1455 Q1477.45 1450.39 1483.26 1450.39 Z" fill="#000000" fill-rule="nonzero" fill-opacity="1"></path><path clip-path="url(#clip410)" d="M1513.42 1454.1 Q1509.81 1454.1 1507.98 1457.66 Q1506.18 1461.2 1506.18 1468.33 Q1506.18 1475.44 1507.98 1479.01 Q1509.81 1482.55 1513.42 1482.55 Q1517.06 1482.55 1518.86 1479.01 Q1520.69 1475.44 1520.69 1468.33 Q1520.69 1461.2 1518.86 1457.66 Q1517.06 1454.1 1513.42 1454.1 M1513.42 1450.39 Q1519.23 1450.39 1522.29 1455 Q1525.37 1459.58 1525.37 1468.33 Q1525.37 1477.06 1522.29 1481.67 Q1519.23 1486.25 1513.42 1486.25 Q1507.61 1486.25 1504.53 1481.67 Q1501.48 1477.06 1501.48 1468.33 Q1501.48 1459.58 1504.53 1455 Q1507.61 1450.39 1513.42 1450.39 Z" fill="#000000" fill-rule="nonzero" fill-opacity="1"></path><path clip-path="url(#clip410)" d="M1859.03 1455.09 L1847.22 1473.54 L1859.03 1473.54 L1859.03 1455.09 M1857.8 1451.02 L1863.68 1451.02 L1863.68 1473.54 L1868.61 1473.54 L1868.61 1477.43 L1863.68 1477.43 L1863.68 1485.58 L1859.03 1485.58 L1859.03 1477.43 L1843.42 1477.43 L1843.42 1472.92 L1857.8 1451.02 Z" fill="#000000" fill-rule="nonzero" fill-opacity="1"></path><path clip-path="url(#clip410)" d="M1886.34 1454.1 Q1882.73 1454.1 1880.9 1457.66 Q1879.09 1461.2 1879.09 1468.33 Q1879.09 1475.44 1880.9 1479.01 Q1882.73 1482.55 1886.34 1482.55 Q1889.97 1482.55 1891.78 1479.01 Q1893.61 1475.44 1893.61 1468.33 Q1893.61 1461.2 1891.78 1457.66 Q1889.97 1454.1 1886.34 1454.1 M1886.34 1450.39 Q1892.15 1450.39 1895.21 1455 Q1898.28 1459.58 1898.28 1468.33 Q1898.28 1477.06 1895.21 1481.67 Q1892.15 1486.25 1886.34 1486.25 Q1880.53 1486.25 1877.45 1481.67 Q1874.4 1477.06 1874.4 1468.33 Q1874.4 1459.58 1877.45 1455 Q1880.53 1450.39 1886.34 1450.39 Z" fill="#000000" fill-rule="nonzero" fill-opacity="1"></path><path clip-path="url(#clip410)" d="M1916.5 1454.1 Q1912.89 1454.1 1911.06 1457.66 Q1909.26 1461.2 1909.26 1468.33 Q1909.26 1475.44 1911.06 1479.01 Q1912.89 1482.55 1916.5 1482.55 Q1920.14 1482.55 1921.94 1479.01 Q1923.77 1475.44 1923.77 1468.33 Q1923.77 1461.2 1921.94 1457.66 Q1920.14 1454.1 1916.5 1454.1 M1916.5 1450.39 Q1922.31 1450.39 1925.37 1455 Q1928.45 1459.58 1928.45 1468.33 Q1928.45 1477.06 1925.37 1481.67 Q1922.31 1486.25 1916.5 1486.25 Q1910.69 1486.25 1907.61 1481.67 Q1904.56 1477.06 1904.56 1468.33 Q1904.56 1459.58 1907.61 1455 Q1910.69 1450.39 1916.5 1450.39 Z" fill="#000000" fill-rule="nonzero" fill-opacity="1"></path><path clip-path="url(#clip410)" d="M2247.99 1451.02 L2266.34 1451.02 L2266.34 1454.96 L2252.27 1454.96 L2252.27 1463.43 Q2253.29 1463.08 2254.3 1462.92 Q2255.32 1462.73 2256.34 1462.73 Q2262.13 1462.73 2265.51 1465.9 Q2268.89 1469.08 2268.89 1474.49 Q2268.89 1480.07 2265.42 1483.17 Q2261.94 1486.25 2255.62 1486.25 Q2253.45 1486.25 2251.18 1485.88 Q2248.93 1485.51 2246.53 1484.77 L2246.53 1480.07 Q2248.61 1481.2 2250.83 1481.76 Q2253.05 1482.32 2255.53 1482.32 Q2259.54 1482.32 2261.87 1480.21 Q2264.21 1478.1 2264.21 1474.49 Q2264.21 1470.88 2261.87 1468.77 Q2259.54 1466.67 2255.53 1466.67 Q2253.66 1466.67 2251.78 1467.08 Q2249.93 1467.5 2247.99 1468.38 L2247.99 1451.02 Z" fill="#000000" fill-rule="nonzero" fill-opacity="1"></path><path clip-path="url(#clip410)" d="M2288.1 1454.1 Q2284.49 1454.1 2282.66 1457.66 Q2280.86 1461.2 2280.86 1468.33 Q2280.86 1475.44 2282.66 1479.01 Q2284.49 1482.55 2288.1 1482.55 Q2291.73 1482.55 2293.54 1479.01 Q2295.37 1475.44 2295.37 1468.33 Q2295.37 1461.2 2293.54 1457.66 Q2291.73 1454.1 2288.1 1454.1 M2288.1 1450.39 Q2293.91 1450.39 2296.97 1455 Q2300.04 1459.58 2300.04 1468.33 Q2300.04 1477.06 2296.97 1481.67 Q2293.91 1486.25 2288.1 1486.25 Q2282.29 1486.25 2279.21 1481.67 Q2276.16 1477.06 2276.16 1468.33 Q2276.16 1459.58 2279.21 1455 Q2282.29 1450.39 2288.1 1450.39 Z" fill="#000000" fill-rule="nonzero" fill-opacity="1"></path><path clip-path="url(#clip410)" d="M2318.26 1454.1 Q2314.65 1454.1 2312.82 1457.66 Q2311.02 1461.2 2311.02 1468.33 Q2311.02 1475.44 2312.82 1479.01 Q2314.65 1482.55 2318.26 1482.55 Q2321.9 1482.55 2323.7 1479.01 Q2325.53 1475.44 2325.53 1468.33 Q2325.53 1461.2 2323.7 1457.66 Q2321.9 1454.1 2318.26 1454.1 M2318.26 1450.39 Q2324.07 1450.39 2327.13 1455 Q2330.21 1459.58 2330.21 1468.33 Q2330.21 1477.06 2327.13 1481.67 Q2324.07 1486.25 2318.26 1486.25 Q2312.45 1486.25 2309.37 1481.67 Q2306.32 1477.06 2306.32 1468.33 Q2306.32 1459.58 2309.37 1455 Q2312.45 1450.39 2318.26 1450.39 Z" fill="#000000" fill-rule="nonzero" fill-opacity="1"></path><path clip-path="url(#clip410)" d="M1135.87 1520.52 L1142.3 1520.52 L1142.3 1568.04 L1135.87 1568.04 L1135.87 1520.52 Z" fill="#000000" fill-rule="nonzero" fill-opacity="1"></path><path clip-path="url(#clip410)" d="M1160.64 1522.27 L1160.64 1532.4 L1172.7 1532.4 L1172.7 1536.95 L1160.64 1536.95 L1160.64 1556.3 Q1160.64 1560.66 1161.81 1561.9 Q1163.02 1563.14 1166.68 1563.14 L1172.7 1563.14 L1172.7 1568.04 L1166.68 1568.04 Q1159.9 1568.04 1157.33 1565.53 Q1154.75 1562.98 1154.75 1556.3 L1154.75 1536.95 L1150.45 1536.95 L1150.45 1532.4 L1154.75 1532.4 L1154.75 1522.27 L1160.64 1522.27 Z" fill="#000000" fill-rule="nonzero" fill-opacity="1"></path><path clip-path="url(#clip410)" d="M1210.89 1548.76 L1210.89 1551.62 L1183.97 1551.62 Q1184.35 1557.67 1187.59 1560.85 Q1190.87 1564 1196.7 1564 Q1200.07 1564 1203.22 1563.17 Q1206.41 1562.35 1209.52 1560.69 L1209.52 1566.23 Q1206.37 1567.57 1203.06 1568.27 Q1199.75 1568.97 1196.35 1568.97 Q1187.82 1568.97 1182.82 1564 Q1177.86 1559.04 1177.86 1550.57 Q1177.86 1541.82 1182.57 1536.69 Q1187.31 1531.54 1195.33 1531.54 Q1202.52 1531.54 1206.69 1536.18 Q1210.89 1540.8 1210.89 1548.76 M1205.04 1547.04 Q1204.97 1542.23 1202.33 1539.37 Q1199.72 1536.5 1195.39 1536.5 Q1190.49 1536.5 1187.53 1539.27 Q1184.6 1542.04 1184.16 1547.07 L1205.04 1547.04 Z" fill="#000000" fill-rule="nonzero" fill-opacity="1"></path><path clip-path="url(#clip410)" d="M1241.16 1537.87 Q1240.18 1537.3 1239 1537.04 Q1237.85 1536.76 1236.45 1536.76 Q1231.49 1536.76 1228.81 1540 Q1226.17 1543.22 1226.17 1549.27 L1226.17 1568.04 L1220.28 1568.04 L1220.28 1532.4 L1226.17 1532.4 L1226.17 1537.93 Q1228.02 1534.69 1230.98 1533.13 Q1233.94 1531.54 1238.17 1531.54 Q1238.78 1531.54 1239.51 1531.63 Q1240.24 1531.7 1241.13 1531.85 L1241.16 1537.87 Z" fill="#000000" fill-rule="nonzero" fill-opacity="1"></path><path clip-path="url(#clip410)" d="M1263.51 1550.12 Q1256.41 1550.12 1253.67 1551.75 Q1250.93 1553.37 1250.93 1557.29 Q1250.93 1560.4 1252.97 1562.25 Q1255.04 1564.07 1258.57 1564.07 Q1263.44 1564.07 1266.37 1560.63 Q1269.33 1557.16 1269.33 1551.43 L1269.33 1550.12 L1263.51 1550.12 M1275.19 1547.71 L1275.19 1568.04 L1269.33 1568.04 L1269.33 1562.63 Q1267.33 1565.88 1264.33 1567.44 Q1261.34 1568.97 1257.01 1568.97 Q1251.54 1568.97 1248.29 1565.91 Q1245.08 1562.82 1245.08 1557.67 Q1245.08 1551.65 1249.09 1548.6 Q1253.13 1545.54 1261.12 1545.54 L1269.33 1545.54 L1269.33 1544.97 Q1269.33 1540.93 1266.66 1538.73 Q1264.02 1536.5 1259.21 1536.5 Q1256.15 1536.5 1253.26 1537.23 Q1250.36 1537.97 1247.69 1539.43 L1247.69 1534.02 Q1250.9 1532.78 1253.93 1532.17 Q1256.95 1531.54 1259.81 1531.54 Q1267.55 1531.54 1271.37 1535.55 Q1275.19 1539.56 1275.19 1547.71 Z" fill="#000000" fill-rule="nonzero" fill-opacity="1"></path><path clip-path="url(#clip410)" d="M1293.04 1522.27 L1293.04 1532.4 L1305.11 1532.4 L1305.11 1536.95 L1293.04 1536.95 L1293.04 1556.3 Q1293.04 1560.66 1294.22 1561.9 Q1295.43 1563.14 1299.09 1563.14 L1305.11 1563.14 L1305.11 1568.04 L1299.09 1568.04 Q1292.31 1568.04 1289.73 1565.53 Q1287.15 1562.98 1287.15 1556.3 L1287.15 1536.95 L1282.86 1536.95 L1282.86 1532.4 L1287.15 1532.4 L1287.15 1522.27 L1293.04 1522.27 Z" fill="#000000" fill-rule="nonzero" fill-opacity="1"></path><path clip-path="url(#clip410)" d="M1312.81 1532.4 L1318.66 1532.4 L1318.66 1568.04 L1312.81 1568.04 L1312.81 1532.4 M1312.81 1518.52 L1318.66 1518.52 L1318.66 1525.93 L1312.81 1525.93 L1312.81 1518.52 Z" fill="#000000" fill-rule="nonzero" fill-opacity="1"></path><path clip-path="url(#clip410)" d="M1344.73 1536.5 Q1340.02 1536.5 1337.28 1540.19 Q1334.55 1543.85 1334.55 1550.25 Q1334.55 1556.65 1337.25 1560.34 Q1339.99 1564 1344.73 1564 Q1349.41 1564 1352.15 1560.31 Q1354.89 1556.62 1354.89 1550.25 Q1354.89 1543.92 1352.15 1540.23 Q1349.41 1536.5 1344.73 1536.5 M1344.73 1531.54 Q1352.37 1531.54 1356.73 1536.5 Q1361.09 1541.47 1361.09 1550.25 Q1361.09 1559 1356.73 1564 Q1352.37 1568.97 1344.73 1568.97 Q1337.06 1568.97 1332.7 1564 Q1328.37 1559 1328.37 1550.25 Q1328.37 1541.47 1332.7 1536.5 Q1337.06 1531.54 1344.73 1531.54 Z" fill="#000000" fill-rule="nonzero" fill-opacity="1"></path><path clip-path="url(#clip410)" d="M1400.43 1546.53 L1400.43 1568.04 L1394.58 1568.04 L1394.58 1546.72 Q1394.58 1541.66 1392.6 1539.14 Q1390.63 1536.63 1386.68 1536.63 Q1381.94 1536.63 1379.2 1539.65 Q1376.47 1542.68 1376.47 1547.9 L1376.47 1568.04 L1370.58 1568.04 L1370.58 1532.4 L1376.47 1532.4 L1376.47 1537.93 Q1378.57 1534.72 1381.4 1533.13 Q1384.26 1531.54 1387.99 1531.54 Q1394.13 1531.54 1397.28 1535.36 Q1400.43 1539.14 1400.43 1546.53 Z" fill="#000000" fill-rule="nonzero" fill-opacity="1"></path><path clip-path="url(#clip410)" d="M1434.84 1533.45 L1434.84 1538.98 Q1432.36 1537.71 1429.68 1537.07 Q1427.01 1536.44 1424.14 1536.44 Q1419.78 1536.44 1417.59 1537.77 Q1415.42 1539.11 1415.42 1541.79 Q1415.42 1543.82 1416.98 1545 Q1418.54 1546.15 1423.25 1547.2 L1425.26 1547.64 Q1431.5 1548.98 1434.11 1551.43 Q1436.75 1553.85 1436.75 1558.21 Q1436.75 1563.17 1432.8 1566.07 Q1428.89 1568.97 1422.01 1568.97 Q1419.15 1568.97 1416.03 1568.39 Q1412.94 1567.85 1409.5 1566.74 L1409.5 1560.69 Q1412.75 1562.38 1415.9 1563.24 Q1419.05 1564.07 1422.14 1564.07 Q1426.28 1564.07 1428.51 1562.66 Q1430.73 1561.23 1430.73 1558.65 Q1430.73 1556.27 1429.11 1554.99 Q1427.52 1553.72 1422.08 1552.54 L1420.04 1552.07 Q1414.6 1550.92 1412.18 1548.56 Q1409.76 1546.18 1409.76 1542.04 Q1409.76 1537.01 1413.32 1534.27 Q1416.89 1531.54 1423.44 1531.54 Q1426.69 1531.54 1429.56 1532.01 Q1432.42 1532.49 1434.84 1533.45 Z" fill="#000000" fill-rule="nonzero" fill-opacity="1"></path><polyline clip-path="url(#clip412)" style="stroke:#000000; stroke-linecap:round; stroke-linejoin:round; stroke-width:2; stroke-opacity:0.1; fill:none" points="219.866,1287.04 2352.76,1287.04 "></polyline>
<polyline clip-path="url(#clip412)" style="stroke:#000000; stroke-linecap:round; stroke-linejoin:round; stroke-width:2; stroke-opacity:0.1; fill:none" points="219.866,1107.55 2352.76,1107.55 "></polyline>
<polyline clip-path="url(#clip412)" style="stroke:#000000; stroke-linecap:round; stroke-linejoin:round; stroke-width:2; stroke-opacity:0.1; fill:none" points="219.866,928.057 2352.76,928.057 "></polyline>
<polyline clip-path="url(#clip412)" style="stroke:#000000; stroke-linecap:round; stroke-linejoin:round; stroke-width:2; stroke-opacity:0.1; fill:none" points="219.866,748.566 2352.76,748.566 "></polyline>
<polyline clip-path="url(#clip412)" style="stroke:#000000; stroke-linecap:round; stroke-linejoin:round; stroke-width:2; stroke-opacity:0.1; fill:none" points="219.866,569.075 2352.76,569.075 "></polyline>
<polyline clip-path="url(#clip412)" style="stroke:#000000; stroke-linecap:round; stroke-linejoin:round; stroke-width:2; stroke-opacity:0.1; fill:none" points="219.866,389.584 2352.76,389.584 "></polyline>
<polyline clip-path="url(#clip412)" style="stroke:#000000; stroke-linecap:round; stroke-linejoin:round; stroke-width:2; stroke-opacity:0.1; fill:none" points="219.866,210.092 2352.76,210.092 "></polyline>
<polyline clip-path="url(#clip410)" style="stroke:#000000; stroke-linecap:round; stroke-linejoin:round; stroke-width:4; stroke-opacity:1; fill:none" points="219.866,1423.18 219.866,47.2441 "></polyline>
<polyline clip-path="url(#clip410)" style="stroke:#000000; stroke-linecap:round; stroke-linejoin:round; stroke-width:4; stroke-opacity:1; fill:none" points="219.866,1287.04 238.764,1287.04 "></polyline>
<polyline clip-path="url(#clip410)" style="stroke:#000000; stroke-linecap:round; stroke-linejoin:round; stroke-width:4; stroke-opacity:1; fill:none" points="219.866,1107.55 238.764,1107.55 "></polyline>
<polyline clip-path="url(#clip410)" style="stroke:#000000; stroke-linecap:round; stroke-linejoin:round; stroke-width:4; stroke-opacity:1; fill:none" points="219.866,928.057 238.764,928.057 "></polyline>
<polyline clip-path="url(#clip410)" style="stroke:#000000; stroke-linecap:round; stroke-linejoin:round; stroke-width:4; stroke-opacity:1; fill:none" points="219.866,748.566 238.764,748.566 "></polyline>
<polyline clip-path="url(#clip410)" style="stroke:#000000; stroke-linecap:round; stroke-linejoin:round; stroke-width:4; stroke-opacity:1; fill:none" points="219.866,569.075 238.764,569.075 "></polyline>
<polyline clip-path="url(#clip410)" style="stroke:#000000; stroke-linecap:round; stroke-linejoin:round; stroke-width:4; stroke-opacity:1; fill:none" points="219.866,389.584 238.764,389.584 "></polyline>
<polyline clip-path="url(#clip410)" style="stroke:#000000; stroke-linecap:round; stroke-linejoin:round; stroke-width:4; stroke-opacity:1; fill:none" points="219.866,210.092 238.764,210.092 "></polyline>
<path clip-path="url(#clip410)" d="M126.691 1272.84 Q123.08 1272.84 121.251 1276.4 Q119.445 1279.94 119.445 1287.07 Q119.445 1294.18 121.251 1297.74 Q123.08 1301.29 126.691 1301.29 Q130.325 1301.29 132.13 1297.74 Q133.959 1294.18 133.959 1287.07 Q133.959 1279.94 132.13 1276.4 Q130.325 1272.84 126.691 1272.84 M126.691 1269.13 Q132.501 1269.13 135.556 1273.74 Q138.635 1278.32 138.635 1287.07 Q138.635 1295.8 135.556 1300.41 Q132.501 1304.99 126.691 1304.99 Q120.88 1304.99 117.802 1300.41 Q114.746 1295.8 114.746 1287.07 Q114.746 1278.32 117.802 1273.74 Q120.88 1269.13 126.691 1269.13 Z" fill="#000000" fill-rule="nonzero" fill-opacity="1"></path><path clip-path="url(#clip410)" d="M146.853 1298.44 L151.737 1298.44 L151.737 1304.32 L146.853 1304.32 L146.853 1298.44 Z" fill="#000000" fill-rule="nonzero" fill-opacity="1"></path><path clip-path="url(#clip410)" d="M171.922 1272.84 Q168.311 1272.84 166.482 1276.4 Q164.677 1279.94 164.677 1287.07 Q164.677 1294.18 166.482 1297.74 Q168.311 1301.29 171.922 1301.29 Q175.556 1301.29 177.362 1297.74 Q179.19 1294.18 179.19 1287.07 Q179.19 1279.94 177.362 1276.4 Q175.556 1272.84 171.922 1272.84 M171.922 1269.13 Q177.732 1269.13 180.788 1273.74 Q183.866 1278.32 183.866 1287.07 Q183.866 1295.8 180.788 1300.41 Q177.732 1304.99 171.922 1304.99 Q166.112 1304.99 163.033 1300.41 Q159.978 1295.8 159.978 1287.07 Q159.978 1278.32 163.033 1273.74 Q166.112 1269.13 171.922 1269.13 Z" fill="#000000" fill-rule="nonzero" fill-opacity="1"></path><path clip-path="url(#clip410)" d="M128.288 1093.35 Q124.677 1093.35 122.848 1096.91 Q121.043 1100.45 121.043 1107.58 Q121.043 1114.69 122.848 1118.25 Q124.677 1121.8 128.288 1121.8 Q131.922 1121.8 133.728 1118.25 Q135.556 1114.69 135.556 1107.58 Q135.556 1100.45 133.728 1096.91 Q131.922 1093.35 128.288 1093.35 M128.288 1089.64 Q134.098 1089.64 137.154 1094.25 Q140.232 1098.83 140.232 1107.58 Q140.232 1116.31 137.154 1120.92 Q134.098 1125.5 128.288 1125.5 Q122.478 1125.5 119.399 1120.92 Q116.343 1116.31 116.343 1107.58 Q116.343 1098.83 119.399 1094.25 Q122.478 1089.64 128.288 1089.64 Z" fill="#000000" fill-rule="nonzero" fill-opacity="1"></path><path clip-path="url(#clip410)" d="M148.45 1118.95 L153.334 1118.95 L153.334 1124.83 L148.45 1124.83 L148.45 1118.95 Z" fill="#000000" fill-rule="nonzero" fill-opacity="1"></path><path clip-path="url(#clip410)" d="M167.547 1120.89 L183.866 1120.89 L183.866 1124.83 L161.922 1124.83 L161.922 1120.89 Q164.584 1118.14 169.167 1113.51 Q173.774 1108.86 174.954 1107.51 Q177.2 1104.99 178.079 1103.25 Q178.982 1101.49 178.982 1099.8 Q178.982 1097.05 177.038 1095.31 Q175.116 1093.58 172.014 1093.58 Q169.815 1093.58 167.362 1094.34 Q164.931 1095.11 162.153 1096.66 L162.153 1091.93 Q164.977 1090.8 167.431 1090.22 Q169.885 1089.64 171.922 1089.64 Q177.292 1089.64 180.487 1092.33 Q183.681 1095.01 183.681 1099.5 Q183.681 1101.63 182.871 1103.55 Q182.084 1105.45 179.977 1108.05 Q179.399 1108.72 176.297 1111.93 Q173.195 1115.13 167.547 1120.89 Z" fill="#000000" fill-rule="nonzero" fill-opacity="1"></path><path clip-path="url(#clip410)" d="M126.205 913.855 Q122.593 913.855 120.765 917.42 Q118.959 920.962 118.959 928.091 Q118.959 935.198 120.765 938.763 Q122.593 942.304 126.205 942.304 Q129.839 942.304 131.644 938.763 Q133.473 935.198 133.473 928.091 Q133.473 920.962 131.644 917.42 Q129.839 913.855 126.205 913.855 M126.205 910.152 Q132.015 910.152 135.07 914.758 Q138.149 919.342 138.149 928.091 Q138.149 936.818 135.07 941.425 Q132.015 946.008 126.205 946.008 Q120.394 946.008 117.316 941.425 Q114.26 936.818 114.26 928.091 Q114.26 919.342 117.316 914.758 Q120.394 910.152 126.205 910.152 Z" fill="#000000" fill-rule="nonzero" fill-opacity="1"></path><path clip-path="url(#clip410)" d="M146.366 939.457 L151.251 939.457 L151.251 945.337 L146.366 945.337 L146.366 939.457 Z" fill="#000000" fill-rule="nonzero" fill-opacity="1"></path><path clip-path="url(#clip410)" d="M174.283 914.851 L162.477 933.3 L174.283 933.3 L174.283 914.851 M173.056 910.777 L178.936 910.777 L178.936 933.3 L183.866 933.3 L183.866 937.189 L178.936 937.189 L178.936 945.337 L174.283 945.337 L174.283 937.189 L158.681 937.189 L158.681 932.675 L173.056 910.777 Z" fill="#000000" fill-rule="nonzero" fill-opacity="1"></path><path clip-path="url(#clip410)" d="M126.529 734.364 Q122.918 734.364 121.089 737.929 Q119.283 741.471 119.283 748.6 Q119.283 755.707 121.089 759.272 Q122.918 762.813 126.529 762.813 Q130.163 762.813 131.968 759.272 Q133.797 755.707 133.797 748.6 Q133.797 741.471 131.968 737.929 Q130.163 734.364 126.529 734.364 M126.529 730.661 Q132.339 730.661 135.394 735.267 Q138.473 739.85 138.473 748.6 Q138.473 757.327 135.394 761.934 Q132.339 766.517 126.529 766.517 Q120.718 766.517 117.64 761.934 Q114.584 757.327 114.584 748.6 Q114.584 739.85 117.64 735.267 Q120.718 730.661 126.529 730.661 Z" fill="#000000" fill-rule="nonzero" fill-opacity="1"></path><path clip-path="url(#clip410)" d="M146.691 759.966 L151.575 759.966 L151.575 765.846 L146.691 765.846 L146.691 759.966 Z" fill="#000000" fill-rule="nonzero" fill-opacity="1"></path><path clip-path="url(#clip410)" d="M172.339 746.702 Q169.19 746.702 167.339 748.855 Q165.51 751.008 165.51 754.758 Q165.51 758.485 167.339 760.661 Q169.19 762.813 172.339 762.813 Q175.487 762.813 177.315 760.661 Q179.167 758.485 179.167 754.758 Q179.167 751.008 177.315 748.855 Q175.487 746.702 172.339 746.702 M181.621 732.05 L181.621 736.309 Q179.862 735.475 178.056 735.036 Q176.274 734.596 174.514 734.596 Q169.885 734.596 167.431 737.721 Q165.001 740.846 164.653 747.165 Q166.019 745.151 168.079 744.087 Q170.139 742.999 172.616 742.999 Q177.825 742.999 180.834 746.17 Q183.866 749.318 183.866 754.758 Q183.866 760.082 180.718 763.299 Q177.57 766.517 172.339 766.517 Q166.343 766.517 163.172 761.934 Q160.001 757.327 160.001 748.6 Q160.001 740.406 163.89 735.545 Q167.778 730.661 174.329 730.661 Q176.089 730.661 177.871 731.008 Q179.676 731.355 181.621 732.05 Z" fill="#000000" fill-rule="nonzero" fill-opacity="1"></path><path clip-path="url(#clip410)" d="M126.783 554.873 Q123.172 554.873 121.343 558.438 Q119.538 561.98 119.538 569.109 Q119.538 576.216 121.343 579.781 Q123.172 583.322 126.783 583.322 Q130.417 583.322 132.223 579.781 Q134.052 576.216 134.052 569.109 Q134.052 561.98 132.223 558.438 Q130.417 554.873 126.783 554.873 M126.783 551.17 Q132.593 551.17 135.649 555.776 Q138.728 560.359 138.728 569.109 Q138.728 577.836 135.649 582.443 Q132.593 587.026 126.783 587.026 Q120.973 587.026 117.894 582.443 Q114.839 577.836 114.839 569.109 Q114.839 560.359 117.894 555.776 Q120.973 551.17 126.783 551.17 Z" fill="#000000" fill-rule="nonzero" fill-opacity="1"></path><path clip-path="url(#clip410)" d="M146.945 580.475 L151.829 580.475 L151.829 586.355 L146.945 586.355 L146.945 580.475 Z" fill="#000000" fill-rule="nonzero" fill-opacity="1"></path><path clip-path="url(#clip410)" d="M172.014 569.943 Q168.681 569.943 166.76 571.725 Q164.862 573.507 164.862 576.632 Q164.862 579.757 166.76 581.54 Q168.681 583.322 172.014 583.322 Q175.348 583.322 177.269 581.54 Q179.19 579.734 179.19 576.632 Q179.19 573.507 177.269 571.725 Q175.371 569.943 172.014 569.943 M167.339 567.952 Q164.329 567.211 162.64 565.151 Q160.973 563.091 160.973 560.128 Q160.973 555.984 163.913 553.577 Q166.876 551.17 172.014 551.17 Q177.176 551.17 180.116 553.577 Q183.056 555.984 183.056 560.128 Q183.056 563.091 181.366 565.151 Q179.7 567.211 176.714 567.952 Q180.093 568.739 181.968 571.031 Q183.866 573.322 183.866 576.632 Q183.866 581.656 180.788 584.341 Q177.732 587.026 172.014 587.026 Q166.297 587.026 163.218 584.341 Q160.163 581.656 160.163 576.632 Q160.163 573.322 162.061 571.031 Q163.959 568.739 167.339 567.952 M165.626 560.568 Q165.626 563.253 167.292 564.758 Q168.982 566.262 172.014 566.262 Q175.024 566.262 176.714 564.758 Q178.426 563.253 178.426 560.568 Q178.426 557.883 176.714 556.378 Q175.024 554.873 172.014 554.873 Q168.982 554.873 167.292 556.378 Q165.626 557.883 165.626 560.568 Z" fill="#000000" fill-rule="nonzero" fill-opacity="1"></path><path clip-path="url(#clip410)" d="M117.501 402.928 L125.14 402.928 L125.14 376.563 L116.83 378.229 L116.83 373.97 L125.093 372.304 L129.769 372.304 L129.769 402.928 L137.408 402.928 L137.408 406.864 L117.501 406.864 L117.501 402.928 Z" fill="#000000" fill-rule="nonzero" fill-opacity="1"></path><path clip-path="url(#clip410)" d="M146.853 400.984 L151.737 400.984 L151.737 406.864 L146.853 406.864 L146.853 400.984 Z" fill="#000000" fill-rule="nonzero" fill-opacity="1"></path><path clip-path="url(#clip410)" d="M171.922 375.382 Q168.311 375.382 166.482 378.947 Q164.677 382.489 164.677 389.618 Q164.677 396.725 166.482 400.289 Q168.311 403.831 171.922 403.831 Q175.556 403.831 177.362 400.289 Q179.19 396.725 179.19 389.618 Q179.19 382.489 177.362 378.947 Q175.556 375.382 171.922 375.382 M171.922 371.679 Q177.732 371.679 180.788 376.285 Q183.866 380.868 183.866 389.618 Q183.866 398.345 180.788 402.952 Q177.732 407.535 171.922 407.535 Q166.112 407.535 163.033 402.952 Q159.978 398.345 159.978 389.618 Q159.978 380.868 163.033 376.285 Q166.112 371.679 171.922 371.679 Z" fill="#000000" fill-rule="nonzero" fill-opacity="1"></path><path clip-path="url(#clip410)" d="M119.098 223.437 L126.737 223.437 L126.737 197.072 L118.427 198.738 L118.427 194.479 L126.691 192.812 L131.367 192.812 L131.367 223.437 L139.005 223.437 L139.005 227.372 L119.098 227.372 L119.098 223.437 Z" fill="#000000" fill-rule="nonzero" fill-opacity="1"></path><path clip-path="url(#clip410)" d="M148.45 221.493 L153.334 221.493 L153.334 227.372 L148.45 227.372 L148.45 221.493 Z" fill="#000000" fill-rule="nonzero" fill-opacity="1"></path><path clip-path="url(#clip410)" d="M167.547 223.437 L183.866 223.437 L183.866 227.372 L161.922 227.372 L161.922 223.437 Q164.584 220.683 169.167 216.053 Q173.774 211.4 174.954 210.058 Q177.2 207.535 178.079 205.798 Q178.982 204.039 178.982 202.349 Q178.982 199.595 177.038 197.859 Q175.116 196.123 172.014 196.123 Q169.815 196.123 167.362 196.887 Q164.931 197.65 162.153 199.201 L162.153 194.479 Q164.977 193.345 167.431 192.766 Q169.885 192.187 171.922 192.187 Q177.292 192.187 180.487 194.873 Q183.681 197.558 183.681 202.049 Q183.681 204.178 182.871 206.099 Q182.084 207.998 179.977 210.59 Q179.399 211.261 176.297 214.479 Q173.195 217.673 167.547 223.437 Z" fill="#000000" fill-rule="nonzero" fill-opacity="1"></path><path clip-path="url(#clip410)" d="M14.479 863.481 L14.479 857.625 L64.0042 857.625 L64.0042 863.481 L14.479 863.481 Z" fill="#000000" fill-rule="nonzero" fill-opacity="1"></path><path clip-path="url(#clip410)" d="M32.4621 831.557 Q32.4621 836.268 36.1542 839.005 Q39.8145 841.742 46.212 841.742 Q52.6095 841.742 56.3017 839.037 Q59.9619 836.299 59.9619 831.557 Q59.9619 826.878 56.2698 824.141 Q52.5777 821.404 46.212 821.404 Q39.8781 821.404 36.186 824.141 Q32.4621 826.878 32.4621 831.557 M27.4968 831.557 Q27.4968 823.918 32.4621 819.558 Q37.4273 815.197 46.212 815.197 Q54.9649 815.197 59.9619 819.558 Q64.9272 823.918 64.9272 831.557 Q64.9272 839.228 59.9619 843.588 Q54.9649 847.917 46.212 847.917 Q37.4273 847.917 32.4621 843.588 Q27.4968 839.228 27.4968 831.557 Z" fill="#000000" fill-rule="nonzero" fill-opacity="1"></path><path clip-path="url(#clip410)" d="M45.7664 782.032 Q39.4007 782.032 35.8996 784.674 Q32.3984 787.283 32.3984 792.026 Q32.3984 796.737 35.8996 799.378 Q39.4007 801.988 45.7664 801.988 Q52.1003 801.988 55.6014 799.378 Q59.1026 796.737 59.1026 792.026 Q59.1026 787.283 55.6014 784.674 Q52.1003 782.032 45.7664 782.032 M59.58 776.175 Q68.683 776.175 73.1071 780.218 Q77.5631 784.26 77.5631 792.599 Q77.5631 795.686 77.0857 798.423 Q76.6401 801.161 75.6852 803.739 L69.9879 803.739 Q71.3884 801.161 72.0568 798.646 Q72.7252 796.132 72.7252 793.522 Q72.7252 787.761 69.7015 784.896 Q66.7096 782.032 60.6303 782.032 L57.7339 782.032 Q60.885 783.846 62.4446 786.679 Q64.0042 789.511 64.0042 793.458 Q64.0042 800.015 59.0071 804.025 Q54.01 808.036 45.7664 808.036 Q37.491 808.036 32.4939 804.025 Q27.4968 800.015 27.4968 793.458 Q27.4968 789.511 29.0564 786.679 Q30.616 783.846 33.7671 782.032 L28.3562 782.032 L28.3562 776.175 L59.58 776.175 Z" fill="#000000" fill-rule="nonzero" fill-opacity="1"></path><path clip-path="url(#clip410)" d="M43.5384 767.072 L43.5384 749.917 L48.7583 749.917 L48.7583 767.072 L43.5384 767.072 Z" fill="#000000" fill-rule="nonzero" fill-opacity="1"></path><path clip-path="url(#clip410)" d="M16.4842 740.336 L16.4842 733.907 L58.5933 733.907 L58.5933 710.768 L64.0042 710.768 L64.0042 740.336 L16.4842 740.336 Z" fill="#000000" fill-rule="nonzero" fill-opacity="1"></path><path clip-path="url(#clip410)" d="M32.4621 691.607 Q32.4621 696.318 36.1542 699.055 Q39.8145 701.792 46.212 701.792 Q52.6095 701.792 56.3017 699.087 Q59.9619 696.349 59.9619 691.607 Q59.9619 686.928 56.2698 684.191 Q52.5777 681.454 46.212 681.454 Q39.8781 681.454 36.186 684.191 Q32.4621 686.928 32.4621 691.607 M27.4968 691.607 Q27.4968 683.968 32.4621 679.608 Q37.4273 675.247 46.212 675.247 Q54.9649 675.247 59.9619 679.608 Q64.9272 683.968 64.9272 691.607 Q64.9272 699.278 59.9619 703.638 Q54.9649 707.967 46.212 707.967 Q37.4273 707.967 32.4621 703.638 Q27.4968 699.278 27.4968 691.607 Z" fill="#000000" fill-rule="nonzero" fill-opacity="1"></path><path clip-path="url(#clip410)" d="M29.4065 642.814 L34.9447 642.814 Q33.6716 645.296 33.035 647.97 Q32.3984 650.644 32.3984 653.508 Q32.3984 657.869 33.7352 660.065 Q35.072 662.229 37.7456 662.229 Q39.7826 662.229 40.9603 660.67 Q42.1061 659.11 43.1565 654.399 L43.6021 652.394 Q44.9389 646.156 47.3897 643.546 Q49.8086 640.904 54.1691 640.904 Q59.1344 640.904 62.0308 644.851 Q64.9272 648.766 64.9272 655.641 Q64.9272 658.505 64.3543 661.624 Q63.8132 664.712 62.6992 668.149 L56.6518 668.149 Q58.3387 664.903 59.198 661.752 Q60.0256 658.601 60.0256 655.513 Q60.0256 651.376 58.6251 649.148 Q57.1929 646.92 54.6147 646.92 Q52.2276 646.92 50.9545 648.543 Q49.6813 650.134 48.5037 655.577 L48.0262 657.614 Q46.8804 663.057 44.5251 665.476 Q42.138 667.895 38.0002 667.895 Q32.9713 667.895 30.2341 664.33 Q27.4968 660.765 27.4968 654.208 Q27.4968 650.962 27.9743 648.097 Q28.4517 645.233 29.4065 642.814 Z" fill="#000000" fill-rule="nonzero" fill-opacity="1"></path><path clip-path="url(#clip410)" d="M29.4065 608.853 L34.9447 608.853 Q33.6716 611.335 33.035 614.009 Q32.3984 616.683 32.3984 619.547 Q32.3984 623.908 33.7352 626.104 Q35.072 628.268 37.7456 628.268 Q39.7826 628.268 40.9603 626.708 Q42.1061 625.149 43.1565 620.438 L43.6021 618.433 Q44.9389 612.195 47.3897 609.585 Q49.8086 606.943 54.1691 606.943 Q59.1344 606.943 62.0308 610.89 Q64.9272 614.805 64.9272 621.68 Q64.9272 624.544 64.3543 627.663 Q63.8132 630.751 62.6992 634.188 L56.6518 634.188 Q58.3387 630.942 59.198 627.791 Q60.0256 624.64 60.0256 621.552 Q60.0256 617.415 58.6251 615.187 Q57.1929 612.959 54.6147 612.959 Q52.2276 612.959 50.9545 614.582 Q49.6813 616.173 48.5037 621.616 L48.0262 623.653 Q46.8804 629.096 44.5251 631.515 Q42.138 633.934 38.0002 633.934 Q32.9713 633.934 30.2341 630.369 Q27.4968 626.804 27.4968 620.247 Q27.4968 617.001 27.9743 614.136 Q28.4517 611.272 29.4065 608.853 Z" fill="#000000" fill-rule="nonzero" fill-opacity="1"></path><polyline clip-path="url(#clip412)" style="stroke:#009af9; stroke-linecap:round; stroke-linejoin:round; stroke-width:4; stroke-opacity:1; fill:none" points="280.231,86.1857 284.255,333.593 288.28,176.825 292.304,593.914 296.328,489.471 300.353,436.456 304.377,418.475 308.401,424.973 312.426,449.289 316.45,486.6 320.474,533.377 324.499,587.023 328.523,645.487 332.547,706.807 336.572,768.592 340.596,827.511 344.62,879.11 348.645,918.554 352.669,942.527 356.693,951.253 360.717,948.643 364.742,940.311 368.766,931.302 372.79,924.767 376.815,921.333 380.839,919.559 384.863,918.168 388.888,918.02 392.912,921.269 396.936,929.159 400.961,941.069 404.985,955.052 409.009,968.916 413.034,981.004 417.058,990.419 421.082,996.901 425.107,1000.6 429.131,1001.93 433.155,1001.44 437.18,999.743 441.204,997.484 445.228,995.227 449.253,993.433 453.277,992.421 457.301,992.36 461.325,993.274 465.35,995.067 469.374,997.551 473.398,1000.48 477.423,1003.59 481.447,1006.63 485.471,1009.42 489.496,1011.8 493.52,1013.73 497.544,1015.21 501.569,1016.28 505.593,1017.05 509.617,1017.61 513.642,1018.06 517.666,1018.51 521.69,1019.05 525.715,1019.73 529.739,1020.61 533.763,1021.69 537.788,1022.97 541.812,1024.4 545.836,1025.92 549.861,1027.46 553.885,1028.95 557.909,1030.35 561.933,1031.63 565.958,1032.81 569.982,1033.93 574.006,1035.01 578.031,1036.13 582.055,1037.33 586.079,1038.64 590.104,1040.1 594.128,1041.72 598.152,1043.5 602.177,1045.44 606.201,1047.54 610.225,1049.79 614.25,1052.2 618.274,1054.81 622.298,1057.65 626.323,1060.77 630.347,1064.23 634.371,1068.09 638.396,1072.41 642.42,1077.28 646.444,1082.77 650.469,1089 654.493,1096.07 658.517,1104.02 662.541,1112.83 666.566,1122.44 670.59,1132.81 674.614,1143.93 678.639,1155.76 682.663,1168.23 686.687,1181.16 690.712,1194.12 694.736,1206.36 698.76,1217.48 702.785,1227.7 706.809,1237.16 710.833,1245.27 714.858,1251.55 718.882,1256.52 722.906,1260.67 726.931,1263.43 730.955,1264.83 734.979,1265.68 739.004,1266.09 743.028,1265.74 747.052,1265.11 751.077,1264.71 755.101,1264.1 759.125,1263.56 763.149,1263.48 767.174,1263.55 771.198,1263.76 775.222,1264.48 779.247,1265.37 783.271,1266.4 787.295,1267.77 791.32,1269.26 795.344,1270.76 799.368,1272.43 803.393,1274.08 807.417,1275.65 811.441,1277.25 815.466,1278.75 819.49,1280.1 823.514,1281.41 827.539,1282.59 831.563,1283.62 835.587,1284.6 839.612,1285.48 843.636,1286.25 847.66,1286.98 851.685,1287.67 855.709,1288.29 859.733,1288.9 863.757,1289.51 867.782,1290.1 871.806,1290.69 875.83,1291.31 879.855,1291.92 883.879,1292.56 887.903,1293.21 891.928,1293.87 895.952,1294.54 899.976,1295.22 904.001,1295.9 908.025,1296.57 912.049,1297.25 916.074,1297.92 920.098,1298.57 924.122,1299.22 928.147,1299.86 932.171,1300.47 936.195,1301.08 940.22,1301.68 944.244,1302.26 948.268,1302.83 952.293,1303.39 956.317,1303.95 960.341,1304.49 964.365,1305.03 968.39,1305.57 972.414,1306.1 976.438,1306.63 980.463,1307.16 984.487,1307.68 988.511,1308.2 992.536,1308.72 996.56,1309.24 1000.58,1309.75 1004.61,1310.27 1008.63,1310.78 1012.66,1311.28 1016.68,1311.79 1020.71,1312.28 1024.73,1312.78 1028.75,1313.27 1032.78,1313.75 1036.8,1314.24 1040.83,1314.72 1044.85,1315.2 1048.88,1315.67 1052.9,1316.14 1056.92,1316.61 1060.95,1317.07 1064.97,1317.53 1069,1317.99 1073.02,1318.45 1077.05,1318.91 1081.07,1319.36 1085.1,1319.81 1089.12,1320.26 1093.14,1320.71 1097.17,1321.15 1101.19,1321.6 1105.22,1322.04 1109.24,1322.47 1113.27,1322.91 1117.29,1323.35 1121.31,1323.78 1125.34,1324.21 1129.36,1324.64 1133.39,1325.06 1137.41,1325.49 1141.44,1325.91 1145.46,1326.33 1149.48,1326.75 1153.51,1327.16 1157.53,1327.58 1161.56,1327.99 1165.58,1328.4 1169.61,1328.81 1173.63,1329.21 1177.65,1329.62 1181.68,1330.02 1185.7,1330.42 1189.73,1330.82 1193.75,1331.22 1197.78,1331.61 1201.8,1332 1205.82,1332.39 1209.85,1332.78 1213.87,1333.17 1217.9,1333.55 1221.92,1333.94 1225.95,1334.32 1229.97,1334.7 1233.99,1335.07 1238.02,1335.45 1242.04,1335.82 1246.07,1336.19 1250.09,1336.56 1254.12,1336.93 1258.14,1337.29 1262.17,1337.65 1266.19,1338.01 1270.21,1338.37 1274.24,1338.73 1278.26,1339.08 1282.29,1339.44 1286.31,1339.79 1290.34,1340.14 1294.36,1340.48 1298.38,1340.83 1302.41,1341.17 1306.43,1341.51 1310.46,1341.85 1314.48,1342.18 1318.51,1342.52 1322.53,1342.85 1326.55,1343.18 1330.58,1343.5 1334.6,1343.83 1338.63,1344.15 1342.65,1344.48 1346.68,1344.79 1350.7,1345.11 1354.72,1345.43 1358.75,1345.74 1362.77,1346.05 1366.8,1346.36 1370.82,1346.67 1374.85,1346.97 1378.87,1347.28 1382.89,1347.58 1386.92,1347.88 1390.94,1348.18 1394.97,1348.47 1398.99,1348.76 1403.02,1349.06 1407.04,1349.34 1411.07,1349.62 1415.09,1349.86 1419.11,1350.03 1423.14,1349.91 1427.16,1348.88 1431.19,1344.75 1435.21,1330.19 1439.24,1288.34 1443.26,1199.51 1447.28,1155.23 1451.31,1254.42 1455.33,1329.38 1459.36,1250.12 1463.38,1166.8 1467.41,1205.16 1471.43,1305.29 1475.45,1321.54 1479.48,1279.73 1483.5,1322.41 1487.53,1341.67 1491.55,1313.94 1495.58,1292.94 1499.6,1312.27 1503.62,1328.9 1507.65,1303.46 1511.67,1326.46 1515.7,1345.44 1519.72,1321.27 1523.75,1319.74 1527.77,1346.14 1531.79,1330.52 1535.82,1330.31 1539.84,1351.64 1543.87,1339.06 1547.89,1329.84 1551.92,1346.54 1555.94,1348.4 1559.96,1338.92 1563.99,1349.13 1568.01,1352.96 1572.04,1344.78 1576.06,1344.76 1580.09,1352.45 1584.11,1352.12 1588.14,1348.22 1592.16,1351.69 1596.18,1356.06 1600.21,1354.62 1604.23,1351.86 1608.26,1354.6 1612.28,1357.82 1616.31,1355.81 1620.33,1353.74 1624.35,1356.14 1628.38,1359.42 1632.4,1359.01 1636.43,1357.32 1640.45,1358.22 1644.48,1360.19 1648.5,1360.68 1652.52,1360.07 1656.55,1359.56 1660.57,1359.98 1664.6,1361.34 1668.62,1362.36 1672.65,1362.11 1676.67,1361.41 1680.69,1361.28 1684.72,1361.79 1688.74,1362.67 1692.77,1363.68 1696.79,1364.22 1700.82,1364.08 1704.84,1363.73 1708.86,1363.46 1712.89,1363.27 1716.91,1363.36 1720.94,1363.91 1724.96,1364.56 1728.99,1365.08 1733.01,1365.53 1737.03,1365.91 1741.06,1366.16 1745.08,1366.36 1749.11,1366.53 1753.13,1366.55 1757.16,1366.28 1761.18,1365.58 1765.21,1363.87 1769.23,1360.47 1773.25,1353.67 1777.28,1342.25 1781.3,1321.61 1785.33,1298.91 1789.35,1277.81 1793.38,1293 1797.4,1329.83 1801.42,1363.55 1805.45,1367.18 1809.47,1343.48 1813.5,1305.93 1817.52,1273.25 1821.55,1299.96 1825.57,1356.62 1829.59,1347.31 1833.62,1285.56 1837.64,1257.77 1841.67,1313.11 1845.69,1363.78 1849.72,1330.09 1853.74,1312.54 1857.76,1353.28 1861.79,1366.14 1865.81,1336.19 1869.84,1328.73 1873.86,1358.47 1877.89,1360.06 1881.91,1340.55 1885.93,1352.09 1889.96,1369.17 1893.98,1359.57 1898.01,1351.27 1902.03,1364.85 1906.06,1368.09 1910.08,1357.58 1914.11,1361.31 1918.13,1370.91 1922.15,1367.99 1926.18,1362.45 1930.2,1367.65 1934.23,1372.37 1938.25,1368.06 1942.28,1365.67 1946.3,1370.44 1950.32,1373.81 1954.35,1371.11 1958.37,1369.31 1962.4,1372.37 1966.42,1374.75 1970.45,1373.21 1974.47,1371.41 1978.49,1372.42 1982.52,1374.79 1986.54,1375.63 1990.57,1374.6 1994.59,1373.68 1998.62,1374.26 2002.64,1375.83 2006.66,1376.87 2010.69,1376.75 2014.71,1376.15 2018.74,1375.96 2022.76,1376.39 2026.79,1377.18 2030.81,1377.91 2034.83,1378.29 2038.86,1378.3 2042.88,1378.16 2046.91,1378.06 2050.93,1378.07 2054.96,1378.2 2058.98,1378.46 2063,1378.75 2067.03,1379.06 2071.05,1379.37 2075.08,1379.66 2079.1,1379.89 2083.13,1380.08 2087.15,1380.23 2091.18,1380.32 2095.2,1380.33 2099.22,1380.22 2103.25,1379.88 2107.27,1379.06 2111.3,1377.27 2115.32,1373.63 2119.35,1366.16 2123.37,1352.89 2127.39,1330.09 2131.42,1305 2135.44,1285.76 2139.47,1301.87 2143.49,1340.49 2147.52,1375.18 2151.54,1380.73 2155.56,1359.94 2159.59,1328.36 2163.61,1307.12 2167.64,1327.06 2171.66,1371.03 2175.69,1372.2 2179.71,1331.02 2183.73,1309.33 2187.76,1336.58 2191.78,1375.66 2195.81,1368.51 2199.83,1346.84 2203.86,1360.07 2207.88,1379.35 2211.9,1374.92 2215.93,1361.34 2219.95,1365.81 2223.98,1380.12 2228,1375.44 2232.03,1365.74 2236.05,1372.58 2240.07,1382.51 2244.1,1379.18 2248.12,1373.12 2252.15,1377.94 2256.17,1383.72 2260.2,1380.03 2264.22,1375.75 2268.25,1379.15 2272.27,1384.11 2276.29,1383.26 2280.32,1380.19 2284.34,1381.04 2288.37,1384.24 2292.39,1384.24 "></polyline>
</svg>