<svg xmlns="http://www.w3.org/2000/svg" xmlns:xlink="http://www.w3.org/1999/xlink" width="600" height="400" viewBox="0 0 2400 1600">
<defs>
  <clipPath id="clip450">
    <rect x="0" y="0" width="2400" height="1600"></rect>
  </clipPath>
</defs>
<path clip-path="url(#clip450)" d="M0 1600 L2400 1600 L2400 0 L0 0  Z" fill="#ffffff" fill-rule="evenodd" fill-opacity="1"></path>
<defs>
  <clipPath id="clip451">
    <rect x="480" y="0" width="1681" height="1600"></rect>
  </clipPath>
</defs>
<path clip-path="url(#clip450)" d="M219.866 1423.18 L2352.76 1423.18 L2352.76 47.2441 L219.866 47.2441  Z" fill="#ffffff" fill-rule="evenodd" fill-opacity="1"></path>
<defs>
  <clipPath id="clip452">
    <rect x="219" y="47" width="2134" height="1377"></rect>
  </clipPath>
</defs>
<polyline clip-path="url(#clip452)" style="stroke:#000000; stroke-linecap:round; stroke-linejoin:round; stroke-width:2; stroke-opacity:0.1; fill:none" points="278.219,1423.18 278.219,47.2441 "></polyline>
<polyline clip-path="url(#clip452)" style="stroke:#000000; stroke-linecap:round; stroke-linejoin:round; stroke-width:2; stroke-opacity:0.1; fill:none" points="781.259,1423.18 781.259,47.2441 "></polyline>
<polyline clip-path="url(#clip452)" style="stroke:#000000; stroke-linecap:round; stroke-linejoin:round; stroke-width:2; stroke-opacity:0.1; fill:none" points="1284.3,1423.18 1284.3,47.2441 "></polyline>
<polyline clip-path="url(#clip452)" style="stroke:#000000; stroke-linecap:round; stroke-linejoin:round; stroke-width:2; stroke-opacity:0.1; fill:none" points="1787.34,1423.18 1787.34,47.2441 "></polyline>
<polyline clip-path="url(#clip452)" style="stroke:#000000; stroke-linecap:round; stroke-linejoin:round; stroke-width:2; stroke-opacity:0.1; fill:none" points="2290.38,1423.18 2290.38,47.2441 "></polyline>
<polyline clip-path="url(#clip450)" style="stroke:#000000; stroke-linecap:round; stroke-linejoin:round; stroke-width:4; stroke-opacity:1; fill:none" points="219.866,1423.18 2352.76,1423.18 "></polyline>
<polyline clip-path="url(#clip450)" style="stroke:#000000; stroke-linecap:round; stroke-linejoin:round; stroke-width:4; stroke-opacity:1; fill:none" points="278.219,1423.18 278.219,1404.28 "></polyline>
<polyline clip-path="url(#clip450)" style="stroke:#000000; stroke-linecap:round; stroke-linejoin:round; stroke-width:4; stroke-opacity:1; fill:none" points="781.259,1423.18 781.259,1404.28 "></polyline>
<polyline clip-path="url(#clip450)" style="stroke:#000000; stroke-linecap:round; stroke-linejoin:round; stroke-width:4; stroke-opacity:1; fill:none" points="1284.3,1423.18 1284.3,1404.28 "></polyline>
<polyline clip-path="url(#clip450)" style="stroke:#000000; stroke-linecap:round; stroke-linejoin:round; stroke-width:4; stroke-opacity:1; fill:none" points="1787.34,1423.18 1787.34,1404.28 "></polyline>
<polyline clip-path="url(#clip450)" style="stroke:#000000; stroke-linecap:round; stroke-linejoin:round; stroke-width:4; stroke-opacity:1; fill:none" points="2290.38,1423.18 2290.38,1404.28 "></polyline>
<path clip-path="url(#clip450)" d="M278.219 1454.1 Q274.608 1454.1 272.779 1457.66 Q270.974 1461.2 270.974 1468.33 Q270.974 1475.44 272.779 1479.01 Q274.608 1482.55 278.219 1482.55 Q281.853 1482.55 283.659 1479.01 Q285.487 1475.44 285.487 1468.33 Q285.487 1461.2 283.659 1457.66 Q281.853 1454.1 278.219 1454.1 M278.219 1450.39 Q284.029 1450.39 287.085 1455 Q290.163 1459.58 290.163 1468.33 Q290.163 1477.06 287.085 1481.67 Q284.029 1486.25 278.219 1486.25 Q272.409 1486.25 269.33 1481.67 Q266.275 1477.06 266.275 1468.33 Q266.275 1459.58 269.33 1455 Q272.409 1450.39 278.219 1450.39 Z" fill="#000000" fill-rule="nonzero" fill-opacity="1"></path><path clip-path="url(#clip450)" d="M744.951 1481.64 L761.271 1481.64 L761.271 1485.58 L739.326 1485.58 L739.326 1481.64 Q741.988 1478.89 746.572 1474.26 Q751.178 1469.61 752.359 1468.27 Q754.604 1465.74 755.484 1464.01 Q756.386 1462.25 756.386 1460.56 Q756.386 1457.8 754.442 1456.07 Q752.521 1454.33 749.419 1454.33 Q747.22 1454.33 744.766 1455.09 Q742.336 1455.86 739.558 1457.41 L739.558 1452.69 Q742.382 1451.55 744.836 1450.97 Q747.289 1450.39 749.326 1450.39 Q754.697 1450.39 757.891 1453.08 Q761.085 1455.77 761.085 1460.26 Q761.085 1462.39 760.275 1464.31 Q759.488 1466.2 757.382 1468.8 Q756.803 1469.47 753.701 1472.69 Q750.599 1475.88 744.951 1481.64 Z" fill="#000000" fill-rule="nonzero" fill-opacity="1"></path><path clip-path="url(#clip450)" d="M771.132 1451.02 L789.488 1451.02 L789.488 1454.96 L775.414 1454.96 L775.414 1463.43 Q776.433 1463.08 777.451 1462.92 Q778.47 1462.73 779.488 1462.73 Q785.275 1462.73 788.655 1465.9 Q792.034 1469.08 792.034 1474.49 Q792.034 1480.07 788.562 1483.17 Q785.09 1486.25 778.771 1486.25 Q776.595 1486.25 774.326 1485.88 Q772.081 1485.51 769.673 1484.77 L769.673 1480.07 Q771.757 1481.2 773.979 1481.76 Q776.201 1482.32 778.678 1482.32 Q782.683 1482.32 785.02 1480.21 Q787.358 1478.1 787.358 1474.49 Q787.358 1470.88 785.02 1468.77 Q782.683 1466.67 778.678 1466.67 Q776.803 1466.67 774.928 1467.08 Q773.076 1467.5 771.132 1468.38 L771.132 1451.02 Z" fill="#000000" fill-rule="nonzero" fill-opacity="1"></path><path clip-path="url(#clip450)" d="M811.247 1454.1 Q807.636 1454.1 805.807 1457.66 Q804.002 1461.2 804.002 1468.33 Q804.002 1475.44 805.807 1479.01 Q807.636 1482.55 811.247 1482.55 Q814.881 1482.55 816.687 1479.01 Q818.516 1475.44 818.516 1468.33 Q818.516 1461.2 816.687 1457.66 Q814.881 1454.1 811.247 1454.1 M811.247 1450.39 Q817.057 1450.39 820.113 1455 Q823.192 1459.58 823.192 1468.33 Q823.192 1477.06 820.113 1481.67 Q817.057 1486.25 811.247 1486.25 Q805.437 1486.25 802.358 1481.67 Q799.303 1477.06 799.303 1468.33 Q799.303 1459.58 802.358 1455 Q805.437 1450.39 811.247 1450.39 Z" fill="#000000" fill-rule="nonzero" fill-opacity="1"></path><path clip-path="url(#clip450)" d="M1243.92 1451.02 L1262.27 1451.02 L1262.27 1454.96 L1248.2 1454.96 L1248.2 1463.43 Q1249.22 1463.08 1250.24 1462.92 Q1251.26 1462.73 1252.27 1462.73 Q1258.06 1462.73 1261.44 1465.9 Q1264.82 1469.08 1264.82 1474.49 Q1264.82 1480.07 1261.35 1483.17 Q1257.88 1486.25 1251.56 1486.25 Q1249.38 1486.25 1247.11 1485.88 Q1244.87 1485.51 1242.46 1484.77 L1242.46 1480.07 Q1244.54 1481.2 1246.76 1481.76 Q1248.99 1482.32 1251.46 1482.32 Q1255.47 1482.32 1257.81 1480.21 Q1260.14 1478.1 1260.14 1474.49 Q1260.14 1470.88 1257.81 1468.77 Q1255.47 1466.67 1251.46 1466.67 Q1249.59 1466.67 1247.71 1467.08 Q1245.86 1467.5 1243.92 1468.38 L1243.92 1451.02 Z" fill="#000000" fill-rule="nonzero" fill-opacity="1"></path><path clip-path="url(#clip450)" d="M1284.03 1454.1 Q1280.42 1454.1 1278.59 1457.66 Q1276.79 1461.2 1276.79 1468.33 Q1276.79 1475.44 1278.59 1479.01 Q1280.42 1482.55 1284.03 1482.55 Q1287.67 1482.55 1289.47 1479.01 Q1291.3 1475.44 1291.3 1468.33 Q1291.3 1461.2 1289.47 1457.66 Q1287.67 1454.1 1284.03 1454.1 M1284.03 1450.39 Q1289.84 1450.39 1292.9 1455 Q1295.98 1459.58 1295.98 1468.33 Q1295.98 1477.06 1292.9 1481.67 Q1289.84 1486.25 1284.03 1486.25 Q1278.22 1486.25 1275.14 1481.67 Q1272.09 1477.06 1272.09 1468.33 Q1272.09 1459.58 1275.14 1455 Q1278.22 1450.39 1284.03 1450.39 Z" fill="#000000" fill-rule="nonzero" fill-opacity="1"></path><path clip-path="url(#clip450)" d="M1314.19 1454.1 Q1310.58 1454.1 1308.75 1457.66 Q1306.95 1461.2 1306.95 1468.33 Q1306.95 1475.44 1308.75 1479.01 Q1310.58 1482.55 1314.19 1482.55 Q1317.83 1482.55 1319.63 1479.01 Q1321.46 1475.44 1321.46 1468.33 Q1321.46 1461.2 1319.63 1457.66 Q1317.83 1454.1 1314.19 1454.1 M1314.19 1450.39 Q1320 1450.39 1323.06 1455 Q1326.14 1459.58 1326.14 1468.33 Q1326.14 1477.06 1323.06 1481.67 Q1320 1486.25 1314.19 1486.25 Q1308.38 1486.25 1305.31 1481.67 Q1302.25 1477.06 1302.25 1468.33 Q1302.25 1459.58 1305.31 1455 Q1308.38 1450.39 1314.19 1450.39 Z" fill="#000000" fill-rule="nonzero" fill-opacity="1"></path><path clip-path="url(#clip450)" d="M1745.61 1451.02 L1767.84 1451.02 L1767.84 1453.01 L1755.29 1485.58 L1750.41 1485.58 L1762.21 1454.96 L1745.61 1454.96 L1745.61 1451.02 Z" fill="#000000" fill-rule="nonzero" fill-opacity="1"></path><path clip-path="url(#clip450)" d="M1777 1451.02 L1795.36 1451.02 L1795.36 1454.96 L1781.29 1454.96 L1781.29 1463.43 Q1782.3 1463.08 1783.32 1462.92 Q1784.34 1462.73 1785.36 1462.73 Q1791.15 1462.73 1794.53 1465.9 Q1797.91 1469.08 1797.91 1474.49 Q1797.91 1480.07 1794.43 1483.17 Q1790.96 1486.25 1784.64 1486.25 Q1782.47 1486.25 1780.2 1485.88 Q1777.95 1485.51 1775.55 1484.77 L1775.55 1480.07 Q1777.63 1481.2 1779.85 1481.76 Q1782.07 1482.32 1784.55 1482.32 Q1788.55 1482.32 1790.89 1480.21 Q1793.23 1478.1 1793.23 1474.49 Q1793.23 1470.88 1790.89 1468.77 Q1788.55 1466.67 1784.55 1466.67 Q1782.67 1466.67 1780.8 1467.08 Q1778.95 1467.5 1777 1468.38 L1777 1451.02 Z" fill="#000000" fill-rule="nonzero" fill-opacity="1"></path><path clip-path="url(#clip450)" d="M1817.12 1454.1 Q1813.51 1454.1 1811.68 1457.66 Q1809.87 1461.2 1809.87 1468.33 Q1809.87 1475.44 1811.68 1479.01 Q1813.51 1482.55 1817.12 1482.55 Q1820.75 1482.55 1822.56 1479.01 Q1824.39 1475.44 1824.39 1468.33 Q1824.39 1461.2 1822.56 1457.66 Q1820.75 1454.1 1817.12 1454.1 M1817.12 1450.39 Q1822.93 1450.39 1825.98 1455 Q1829.06 1459.58 1829.06 1468.33 Q1829.06 1477.06 1825.98 1481.67 Q1822.93 1486.25 1817.12 1486.25 Q1811.31 1486.25 1808.23 1481.67 Q1805.17 1477.06 1805.17 1468.33 Q1805.17 1459.58 1808.23 1455 Q1811.31 1450.39 1817.12 1450.39 Z" fill="#000000" fill-rule="nonzero" fill-opacity="1"></path><path clip-path="url(#clip450)" d="M2234.9 1481.64 L2242.54 1481.64 L2242.54 1455.28 L2234.23 1456.95 L2234.23 1452.69 L2242.5 1451.02 L2247.17 1451.02 L2247.17 1481.64 L2254.81 1481.64 L2254.81 1485.58 L2234.9 1485.58 L2234.9 1481.64 Z" fill="#000000" fill-rule="nonzero" fill-opacity="1"></path><path clip-path="url(#clip450)" d="M2274.26 1454.1 Q2270.65 1454.1 2268.82 1457.66 Q2267.01 1461.2 2267.01 1468.33 Q2267.01 1475.44 2268.82 1479.01 Q2270.65 1482.55 2274.26 1482.55 Q2277.89 1482.55 2279.7 1479.01 Q2281.52 1475.44 2281.52 1468.33 Q2281.52 1461.2 2279.7 1457.66 Q2277.89 1454.1 2274.26 1454.1 M2274.26 1450.39 Q2280.07 1450.39 2283.12 1455 Q2286.2 1459.58 2286.2 1468.33 Q2286.2 1477.06 2283.12 1481.67 Q2280.07 1486.25 2274.26 1486.25 Q2268.45 1486.25 2265.37 1481.67 Q2262.31 1477.06 2262.31 1468.33 Q2262.31 1459.58 2265.37 1455 Q2268.45 1450.39 2274.26 1450.39 Z" fill="#000000" fill-rule="nonzero" fill-opacity="1"></path><path clip-path="url(#clip450)" d="M2304.42 1454.1 Q2300.81 1454.1 2298.98 1457.66 Q2297.17 1461.2 2297.17 1468.33 Q2297.17 1475.44 2298.98 1479.01 Q2300.81 1482.55 2304.42 1482.55 Q2308.05 1482.55 2309.86 1479.01 Q2311.69 1475.44 2311.69 1468.33 Q2311.69 1461.2 2309.86 1457.66 Q2308.05 1454.1 2304.42 1454.1 M2304.42 1450.39 Q2310.23 1450.39 2313.28 1455 Q2316.36 1459.58 2316.36 1468.33 Q2316.36 1477.06 2313.28 1481.67 Q2310.23 1486.25 2304.42 1486.25 Q2298.61 1486.25 2295.53 1481.67 Q2292.47 1477.06 2292.47 1468.33 Q2292.47 1459.58 2295.53 1455 Q2298.61 1450.39 2304.42 1450.39 Z" fill="#000000" fill-rule="nonzero" fill-opacity="1"></path><path clip-path="url(#clip450)" d="M2334.58 1454.1 Q2330.97 1454.1 2329.14 1457.66 Q2327.33 1461.2 2327.33 1468.33 Q2327.33 1475.44 2329.14 1479.01 Q2330.97 1482.55 2334.58 1482.55 Q2338.21 1482.55 2340.02 1479.01 Q2341.85 1475.44 2341.85 1468.33 Q2341.85 1461.2 2340.02 1457.66 Q2338.21 1454.1 2334.58 1454.1 M2334.58 1450.39 Q2340.39 1450.39 2343.45 1455 Q2346.52 1459.58 2346.52 1468.33 Q2346.52 1477.06 2343.45 1481.67 Q2340.39 1486.25 2334.58 1486.25 Q2328.77 1486.25 2325.69 1481.67 Q2322.64 1477.06 2322.64 1468.33 Q2322.64 1459.58 2325.69 1455 Q2328.77 1450.39 2334.58 1450.39 Z" fill="#000000" fill-rule="nonzero" fill-opacity="1"></path><path clip-path="url(#clip450)" d="M1135.87 1520.52 L1142.3 1520.52 L1142.3 1568.04 L1135.87 1568.04 L1135.87 1520.52 Z" fill="#000000" fill-rule="nonzero" fill-opacity="1"></path><path clip-path="url(#clip450)" d="M1160.64 1522.27 L1160.64 1532.4 L1172.7 1532.4 L1172.7 1536.95 L1160.64 1536.95 L1160.64 1556.3 Q1160.64 1560.66 1161.81 1561.9 Q1163.02 1563.14 1166.68 1563.14 L1172.7 1563.14 L1172.7 1568.04 L1166.68 1568.04 Q1159.9 1568.04 1157.33 1565.53 Q1154.75 1562.98 1154.75 1556.3 L1154.75 1536.95 L1150.45 1536.95 L1150.45 1532.4 L1154.75 1532.4 L1154.75 1522.27 L1160.64 1522.27 Z" fill="#000000" fill-rule="nonzero" fill-opacity="1"></path><path clip-path="url(#clip450)" d="M1210.89 1548.76 L1210.89 1551.62 L1183.97 1551.62 Q1184.35 1557.67 1187.59 1560.85 Q1190.87 1564 1196.7 1564 Q1200.07 1564 1203.22 1563.17 Q1206.41 1562.35 1209.52 1560.69 L1209.52 1566.23 Q1206.37 1567.57 1203.06 1568.27 Q1199.75 1568.97 1196.35 1568.97 Q1187.82 1568.97 1182.82 1564 Q1177.86 1559.04 1177.86 1550.57 Q1177.86 1541.82 1182.57 1536.69 Q1187.31 1531.54 1195.33 1531.54 Q1202.52 1531.54 1206.69 1536.18 Q1210.89 1540.8 1210.89 1548.76 M1205.04 1547.04 Q1204.97 1542.23 1202.33 1539.37 Q1199.72 1536.5 1195.39 1536.5 Q1190.49 1536.5 1187.53 1539.27 Q1184.6 1542.04 1184.16 1547.07 L1205.04 1547.04 Z" fill="#000000" fill-rule="nonzero" fill-opacity="1"></path><path clip-path="url(#clip450)" d="M1241.16 1537.87 Q1240.18 1537.3 1239 1537.04 Q1237.85 1536.76 1236.45 1536.76 Q1231.49 1536.76 1228.81 1540 Q1226.17 1543.22 1226.17 1549.27 L1226.17 1568.04 L1220.28 1568.04 L1220.28 1532.4 L1226.17 1532.4 L1226.17 1537.93 Q1228.02 1534.69 1230.98 1533.13 Q1233.94 1531.54 1238.17 1531.54 Q1238.78 1531.54 1239.51 1531.63 Q1240.24 1531.7 1241.13 1531.85 L1241.16 1537.87 Z" fill="#000000" fill-rule="nonzero" fill-opacity="1"></path><path clip-path="url(#clip450)" d="M1263.51 1550.12 Q1256.41 1550.12 1253.67 1551.75 Q1250.93 1553.37 1250.93 1557.29 Q1250.93 1560.4 1252.97 1562.25 Q1255.04 1564.07 1258.57 1564.07 Q1263.44 1564.07 1266.37 1560.63 Q1269.33 1557.16 1269.33 1551.43 L1269.33 1550.12 L1263.51 1550.12 M1275.19 1547.71 L1275.19 1568.04 L1269.33 1568.04 L1269.33 1562.63 Q1267.33 1565.88 1264.33 1567.44 Q1261.34 1568.97 1257.01 1568.97 Q1251.54 1568.97 1248.29 1565.91 Q1245.08 1562.82 1245.08 1557.67 Q1245.08 1551.65 1249.09 1548.6 Q1253.13 1545.54 1261.12 1545.54 L1269.33 1545.54 L1269.33 1544.97 Q1269.33 1540.93 1266.66 1538.73 Q1264.02 1536.5 1259.21 1536.5 Q1256.15 1536.5 1253.26 1537.23 Q1250.36 1537.97 1247.69 1539.43 L1247.69 1534.02 Q1250.9 1532.78 1253.93 1532.17 Q1256.95 1531.54 1259.81 1531.54 Q1267.55 1531.54 1271.37 1535.55 Q1275.19 1539.56 1275.19 1547.71 Z" fill="#000000" fill-rule="nonzero" fill-opacity="1"></path><path clip-path="url(#clip450)" d="M1293.04 1522.27 L1293.04 1532.4 L1305.11 1532.4 L1305.11 1536.95 L1293.04 1536.95 L1293.04 1556.3 Q1293.04 1560.66 1294.22 1561.9 Q1295.43 1563.14 1299.09 1563.14 L1305.11 1563.14 L1305.11 1568.04 L1299.09 1568.04 Q1292.31 1568.04 1289.73 1565.53 Q1287.15 1562.98 1287.15 1556.3 L1287.15 1536.95 L1282.86 1536.95 L1282.86 1532.4 L1287.15 1532.4 L1287.15 1522.27 L1293.04 1522.27 Z" fill="#000000" fill-rule="nonzero" fill-opacity="1"></path><path clip-path="url(#clip450)" d="M1312.81 1532.4 L1318.66 1532.4 L1318.66 1568.04 L1312.81 1568.04 L1312.81 1532.4 M1312.81 1518.52 L1318.66 1518.52 L1318.66 1525.93 L1312.81 1525.93 L1312.81 1518.52 Z" fill="#000000" fill-rule="nonzero" fill-opacity="1"></path><path clip-path="url(#clip450)" d="M1344.73 1536.5 Q1340.02 1536.5 1337.28 1540.19 Q1334.55 1543.85 1334.55 1550.25 Q1334.55 1556.65 1337.25 1560.34 Q1339.99 1564 1344.73 1564 Q1349.41 1564 1352.15 1560.31 Q1354.89 1556.62 1354.89 1550.25 Q1354.89 1543.92 1352.15 1540.23 Q1349.41 1536.5 1344.73 1536.5 M1344.73 1531.54 Q1352.37 1531.54 1356.73 1536.5 Q1361.09 1541.47 1361.09 1550.25 Q1361.09 1559 1356.73 1564 Q1352.37 1568.97 1344.73 1568.97 Q1337.06 1568.97 1332.7 1564 Q1328.37 1559 1328.37 1550.25 Q1328.37 1541.47 1332.7 1536.5 Q1337.06 1531.54 1344.73 1531.54 Z" fill="#000000" fill-rule="nonzero" fill-opacity="1"></path><path clip-path="url(#clip450)" d="M1400.43 1546.53 L1400.43 1568.04 L1394.58 1568.04 L1394.58 1546.72 Q1394.58 1541.66 1392.6 1539.14 Q1390.63 1536.63 1386.68 1536.63 Q1381.94 1536.63 1379.2 1539.65 Q1376.47 1542.68 1376.47 1547.9 L1376.47 1568.04 L1370.58 1568.04 L1370.58 1532.4 L1376.47 1532.4 L1376.47 1537.93 Q1378.57 1534.72 1381.4 1533.13 Q1384.26 1531.54 1387.99 1531.54 Q1394.13 1531.54 1397.28 1535.36 Q1400.43 1539.14 1400.43 1546.53 Z" fill="#000000" fill-rule="nonzero" fill-opacity="1"></path><path clip-path="url(#clip450)" d="M1434.84 1533.45 L1434.84 1538.98 Q1432.36 1537.71 1429.68 1537.07 Q1427.01 1536.44 1424.14 1536.44 Q1419.78 1536.44 1417.59 1537.77 Q1415.42 1539.11 1415.42 1541.79 Q1415.42 1543.82 1416.98 1545 Q1418.54 1546.15 1423.25 1547.2 L1425.26 1547.64 Q1431.5 1548.98 1434.11 1551.43 Q1436.75 1553.85 1436.75 1558.21 Q1436.75 1563.17 1432.8 1566.07 Q1428.89 1568.97 1422.01 1568.97 Q1419.15 1568.97 1416.03 1568.39 Q1412.94 1567.85 1409.5 1566.74 L1409.5 1560.69 Q1412.75 1562.38 1415.9 1563.24 Q1419.05 1564.07 1422.14 1564.07 Q1426.28 1564.07 1428.51 1562.66 Q1430.73 1561.23 1430.73 1558.65 Q1430.73 1556.27 1429.11 1554.99 Q1427.52 1553.72 1422.08 1552.54 L1420.04 1552.07 Q1414.6 1550.92 1412.18 1548.56 Q1409.76 1546.18 1409.76 1542.04 Q1409.76 1537.01 1413.32 1534.27 Q1416.89 1531.54 1423.44 1531.54 Q1426.69 1531.54 1429.56 1532.01 Q1432.42 1532.49 1434.84 1533.45 Z" fill="#000000" fill-rule="nonzero" fill-opacity="1"></path><polyline clip-path="url(#clip452)" style="stroke:#000000; stroke-linecap:round; stroke-linejoin:round; stroke-width:2; stroke-opacity:0.1; fill:none" points="219.866,1265.72 2352.76,1265.72 "></polyline>
<polyline clip-path="url(#clip452)" style="stroke:#000000; stroke-linecap:round; stroke-linejoin:round; stroke-width:2; stroke-opacity:0.1; fill:none" points="219.866,1089.42 2352.76,1089.42 "></polyline>
<polyline clip-path="url(#clip452)" style="stroke:#000000; stroke-linecap:round; stroke-linejoin:round; stroke-width:2; stroke-opacity:0.1; fill:none" points="219.866,913.113 2352.76,913.113 "></polyline>
<polyline clip-path="url(#clip452)" style="stroke:#000000; stroke-linecap:round; stroke-linejoin:round; stroke-width:2; stroke-opacity:0.1; fill:none" points="219.866,736.808 2352.76,736.808 "></polyline>
<polyline clip-path="url(#clip452)" style="stroke:#000000; stroke-linecap:round; stroke-linejoin:round; stroke-width:2; stroke-opacity:0.1; fill:none" points="219.866,560.503 2352.76,560.503 "></polyline>
<polyline clip-path="url(#clip452)" style="stroke:#000000; stroke-linecap:round; stroke-linejoin:round; stroke-width:2; stroke-opacity:0.1; fill:none" points="219.866,384.198 2352.76,384.198 "></polyline>
<polyline clip-path="url(#clip452)" style="stroke:#000000; stroke-linecap:round; stroke-linejoin:round; stroke-width:2; stroke-opacity:0.1; fill:none" points="219.866,207.893 2352.76,207.893 "></polyline>
<polyline clip-path="url(#clip450)" style="stroke:#000000; stroke-linecap:round; stroke-linejoin:round; stroke-width:4; stroke-opacity:1; fill:none" points="219.866,1423.18 219.866,47.2441 "></polyline>
<polyline clip-path="url(#clip450)" style="stroke:#000000; stroke-linecap:round; stroke-linejoin:round; stroke-width:4; stroke-opacity:1; fill:none" points="219.866,1265.72 238.764,1265.72 "></polyline>
<polyline clip-path="url(#clip450)" style="stroke:#000000; stroke-linecap:round; stroke-linejoin:round; stroke-width:4; stroke-opacity:1; fill:none" points="219.866,1089.42 238.764,1089.42 "></polyline>
<polyline clip-path="url(#clip450)" style="stroke:#000000; stroke-linecap:round; stroke-linejoin:round; stroke-width:4; stroke-opacity:1; fill:none" points="219.866,913.113 238.764,913.113 "></polyline>
<polyline clip-path="url(#clip450)" style="stroke:#000000; stroke-linecap:round; stroke-linejoin:round; stroke-width:4; stroke-opacity:1; fill:none" points="219.866,736.808 238.764,736.808 "></polyline>
<polyline clip-path="url(#clip450)" style="stroke:#000000; stroke-linecap:round; stroke-linejoin:round; stroke-width:4; stroke-opacity:1; fill:none" points="219.866,560.503 238.764,560.503 "></polyline>
<polyline clip-path="url(#clip450)" style="stroke:#000000; stroke-linecap:round; stroke-linejoin:round; stroke-width:4; stroke-opacity:1; fill:none" points="219.866,384.198 238.764,384.198 "></polyline>
<polyline clip-path="url(#clip450)" style="stroke:#000000; stroke-linecap:round; stroke-linejoin:round; stroke-width:4; stroke-opacity:1; fill:none" points="219.866,207.893 238.764,207.893 "></polyline>
<path clip-path="url(#clip450)" d="M126.691 1251.52 Q123.08 1251.52 121.251 1255.09 Q119.445 1258.63 119.445 1265.76 Q119.445 1272.86 121.251 1276.43 Q123.08 1279.97 126.691 1279.97 Q130.325 1279.97 132.13 1276.43 Q133.959 1272.86 133.959 1265.76 Q133.959 1258.63 132.13 1255.09 Q130.325 1251.52 126.691 1251.52 M126.691 1247.82 Q132.501 1247.82 135.556 1252.42 Q138.635 1257.01 138.635 1265.76 Q138.635 1274.48 135.556 1279.09 Q132.501 1283.67 126.691 1283.67 Q120.88 1283.67 117.802 1279.09 Q114.746 1274.48 114.746 1265.76 Q114.746 1257.01 117.802 1252.42 Q120.88 1247.82 126.691 1247.82 Z" fill="#000000" fill-rule="nonzero" fill-opacity="1"></path><path clip-path="url(#clip450)" d="M146.853 1277.12 L151.737 1277.12 L151.737 1283 L146.853 1283 L146.853 1277.12 Z" fill="#000000" fill-rule="nonzero" fill-opacity="1"></path><path clip-path="url(#clip450)" d="M171.922 1251.52 Q168.311 1251.52 166.482 1255.09 Q164.677 1258.63 164.677 1265.76 Q164.677 1272.86 166.482 1276.43 Q168.311 1279.97 171.922 1279.97 Q175.556 1279.97 177.362 1276.43 Q179.19 1272.86 179.19 1265.76 Q179.19 1258.63 177.362 1255.09 Q175.556 1251.52 171.922 1251.52 M171.922 1247.82 Q177.732 1247.82 180.788 1252.42 Q183.866 1257.01 183.866 1265.76 Q183.866 1274.48 180.788 1279.09 Q177.732 1283.67 171.922 1283.67 Q166.112 1283.67 163.033 1279.09 Q159.978 1274.48 159.978 1265.76 Q159.978 1257.01 163.033 1252.42 Q166.112 1247.82 171.922 1247.82 Z" fill="#000000" fill-rule="nonzero" fill-opacity="1"></path><path clip-path="url(#clip450)" d="M128.288 1075.22 Q124.677 1075.22 122.848 1078.78 Q121.043 1082.32 121.043 1089.45 Q121.043 1096.56 122.848 1100.12 Q124.677 1103.67 128.288 1103.67 Q131.922 1103.67 133.728 1100.12 Q135.556 1096.56 135.556 1089.45 Q135.556 1082.32 133.728 1078.78 Q131.922 1075.22 128.288 1075.22 M128.288 1071.51 Q134.098 1071.51 137.154 1076.12 Q140.232 1080.7 140.232 1089.45 Q140.232 1098.18 137.154 1102.79 Q134.098 1107.37 128.288 1107.37 Q122.478 1107.37 119.399 1102.79 Q116.343 1098.18 116.343 1089.45 Q116.343 1080.7 119.399 1076.12 Q122.478 1071.51 128.288 1071.51 Z" fill="#000000" fill-rule="nonzero" fill-opacity="1"></path><path clip-path="url(#clip450)" d="M148.45 1100.82 L153.334 1100.82 L153.334 1106.7 L148.45 1106.7 L148.45 1100.82 Z" fill="#000000" fill-rule="nonzero" fill-opacity="1"></path><path clip-path="url(#clip450)" d="M167.547 1102.76 L183.866 1102.76 L183.866 1106.7 L161.922 1106.7 L161.922 1102.76 Q164.584 1100.01 169.167 1095.38 Q173.774 1090.73 174.954 1089.38 Q177.2 1086.86 178.079 1085.12 Q178.982 1083.36 178.982 1081.68 Q178.982 1078.92 177.038 1077.18 Q175.116 1075.45 172.014 1075.45 Q169.815 1075.45 167.362 1076.21 Q164.931 1076.98 162.153 1078.53 L162.153 1073.8 Q164.977 1072.67 167.431 1072.09 Q169.885 1071.51 171.922 1071.51 Q177.292 1071.51 180.487 1074.2 Q183.681 1076.88 183.681 1081.37 Q183.681 1083.5 182.871 1085.43 Q182.084 1087.32 179.977 1089.92 Q179.399 1090.59 176.297 1093.8 Q173.195 1097 167.547 1102.76 Z" fill="#000000" fill-rule="nonzero" fill-opacity="1"></path><path clip-path="url(#clip450)" d="M126.205 898.912 Q122.593 898.912 120.765 902.477 Q118.959 906.018 118.959 913.148 Q118.959 920.254 120.765 923.819 Q122.593 927.361 126.205 927.361 Q129.839 927.361 131.644 923.819 Q133.473 920.254 133.473 913.148 Q133.473 906.018 131.644 902.477 Q129.839 898.912 126.205 898.912 M126.205 895.208 Q132.015 895.208 135.07 899.815 Q138.149 904.398 138.149 913.148 Q138.149 921.875 135.07 926.481 Q132.015 931.064 126.205 931.064 Q120.394 931.064 117.316 926.481 Q114.26 921.875 114.26 913.148 Q114.26 904.398 117.316 899.815 Q120.394 895.208 126.205 895.208 Z" fill="#000000" fill-rule="nonzero" fill-opacity="1"></path><path clip-path="url(#clip450)" d="M146.366 924.514 L151.251 924.514 L151.251 930.393 L146.366 930.393 L146.366 924.514 Z" fill="#000000" fill-rule="nonzero" fill-opacity="1"></path><path clip-path="url(#clip450)" d="M174.283 899.907 L162.477 918.356 L174.283 918.356 L174.283 899.907 M173.056 895.833 L178.936 895.833 L178.936 918.356 L183.866 918.356 L183.866 922.245 L178.936 922.245 L178.936 930.393 L174.283 930.393 L174.283 922.245 L158.681 922.245 L158.681 917.731 L173.056 895.833 Z" fill="#000000" fill-rule="nonzero" fill-opacity="1"></path><path clip-path="url(#clip450)" d="M126.529 722.607 Q122.918 722.607 121.089 726.172 Q119.283 729.713 119.283 736.843 Q119.283 743.949 121.089 747.514 Q122.918 751.056 126.529 751.056 Q130.163 751.056 131.968 747.514 Q133.797 743.949 133.797 736.843 Q133.797 729.713 131.968 726.172 Q130.163 722.607 126.529 722.607 M126.529 718.903 Q132.339 718.903 135.394 723.51 Q138.473 728.093 138.473 736.843 Q138.473 745.57 135.394 750.176 Q132.339 754.759 126.529 754.759 Q120.718 754.759 117.64 750.176 Q114.584 745.57 114.584 736.843 Q114.584 728.093 117.64 723.51 Q120.718 718.903 126.529 718.903 Z" fill="#000000" fill-rule="nonzero" fill-opacity="1"></path><path clip-path="url(#clip450)" d="M146.691 748.209 L151.575 748.209 L151.575 754.088 L146.691 754.088 L146.691 748.209 Z" fill="#000000" fill-rule="nonzero" fill-opacity="1"></path><path clip-path="url(#clip450)" d="M172.339 734.945 Q169.19 734.945 167.339 737.097 Q165.51 739.25 165.51 743 Q165.51 746.727 167.339 748.903 Q169.19 751.056 172.339 751.056 Q175.487 751.056 177.315 748.903 Q179.167 746.727 179.167 743 Q179.167 739.25 177.315 737.097 Q175.487 734.945 172.339 734.945 M181.621 720.292 L181.621 724.551 Q179.862 723.718 178.056 723.278 Q176.274 722.838 174.514 722.838 Q169.885 722.838 167.431 725.963 Q165.001 729.088 164.653 735.408 Q166.019 733.394 168.079 732.329 Q170.139 731.241 172.616 731.241 Q177.825 731.241 180.834 734.412 Q183.866 737.56 183.866 743 Q183.866 748.324 180.718 751.542 Q177.57 754.759 172.339 754.759 Q166.343 754.759 163.172 750.176 Q160.001 745.57 160.001 736.843 Q160.001 728.648 163.89 723.787 Q167.778 718.903 174.329 718.903 Q176.089 718.903 177.871 719.25 Q179.676 719.598 181.621 720.292 Z" fill="#000000" fill-rule="nonzero" fill-opacity="1"></path><path clip-path="url(#clip450)" d="M126.783 546.302 Q123.172 546.302 121.343 549.867 Q119.538 553.408 119.538 560.538 Q119.538 567.644 121.343 571.209 Q123.172 574.751 126.783 574.751 Q130.417 574.751 132.223 571.209 Q134.052 567.644 134.052 560.538 Q134.052 553.408 132.223 549.867 Q130.417 546.302 126.783 546.302 M126.783 542.598 Q132.593 542.598 135.649 547.205 Q138.728 551.788 138.728 560.538 Q138.728 569.265 135.649 573.871 Q132.593 578.454 126.783 578.454 Q120.973 578.454 117.894 573.871 Q114.839 569.265 114.839 560.538 Q114.839 551.788 117.894 547.205 Q120.973 542.598 126.783 542.598 Z" fill="#000000" fill-rule="nonzero" fill-opacity="1"></path><path clip-path="url(#clip450)" d="M146.945 571.903 L151.829 571.903 L151.829 577.783 L146.945 577.783 L146.945 571.903 Z" fill="#000000" fill-rule="nonzero" fill-opacity="1"></path><path clip-path="url(#clip450)" d="M172.014 561.371 Q168.681 561.371 166.76 563.154 Q164.862 564.936 164.862 568.061 Q164.862 571.186 166.76 572.968 Q168.681 574.751 172.014 574.751 Q175.348 574.751 177.269 572.968 Q179.19 571.163 179.19 568.061 Q179.19 564.936 177.269 563.154 Q175.371 561.371 172.014 561.371 M167.339 559.38 Q164.329 558.64 162.64 556.579 Q160.973 554.519 160.973 551.556 Q160.973 547.413 163.913 545.005 Q166.876 542.598 172.014 542.598 Q177.176 542.598 180.116 545.005 Q183.056 547.413 183.056 551.556 Q183.056 554.519 181.366 556.579 Q179.7 558.64 176.714 559.38 Q180.093 560.167 181.968 562.459 Q183.866 564.751 183.866 568.061 Q183.866 573.084 180.788 575.769 Q177.732 578.454 172.014 578.454 Q166.297 578.454 163.218 575.769 Q160.163 573.084 160.163 568.061 Q160.163 564.751 162.061 562.459 Q163.959 560.167 167.339 559.38 M165.626 551.996 Q165.626 554.681 167.292 556.186 Q168.982 557.691 172.014 557.691 Q175.024 557.691 176.714 556.186 Q178.426 554.681 178.426 551.996 Q178.426 549.311 176.714 547.806 Q175.024 546.302 172.014 546.302 Q168.982 546.302 167.292 547.806 Q165.626 549.311 165.626 551.996 Z" fill="#000000" fill-rule="nonzero" fill-opacity="1"></path><path clip-path="url(#clip450)" d="M117.501 397.543 L125.14 397.543 L125.14 371.177 L116.83 372.844 L116.83 368.585 L125.093 366.918 L129.769 366.918 L129.769 397.543 L137.408 397.543 L137.408 401.478 L117.501 401.478 L117.501 397.543 Z" fill="#000000" fill-rule="nonzero" fill-opacity="1"></path><path clip-path="url(#clip450)" d="M146.853 395.598 L151.737 395.598 L151.737 401.478 L146.853 401.478 L146.853 395.598 Z" fill="#000000" fill-rule="nonzero" fill-opacity="1"></path><path clip-path="url(#clip450)" d="M171.922 369.997 Q168.311 369.997 166.482 373.562 Q164.677 377.103 164.677 384.233 Q164.677 391.339 166.482 394.904 Q168.311 398.446 171.922 398.446 Q175.556 398.446 177.362 394.904 Q179.19 391.339 179.19 384.233 Q179.19 377.103 177.362 373.562 Q175.556 369.997 171.922 369.997 M171.922 366.293 Q177.732 366.293 180.788 370.9 Q183.866 375.483 183.866 384.233 Q183.866 392.96 180.788 397.566 Q177.732 402.149 171.922 402.149 Q166.112 402.149 163.033 397.566 Q159.978 392.96 159.978 384.233 Q159.978 375.483 163.033 370.9 Q166.112 366.293 171.922 366.293 Z" fill="#000000" fill-rule="nonzero" fill-opacity="1"></path><path clip-path="url(#clip450)" d="M119.098 221.238 L126.737 221.238 L126.737 194.872 L118.427 196.539 L118.427 192.28 L126.691 190.613 L131.367 190.613 L131.367 221.238 L139.005 221.238 L139.005 225.173 L119.098 225.173 L119.098 221.238 Z" fill="#000000" fill-rule="nonzero" fill-opacity="1"></path><path clip-path="url(#clip450)" d="M148.45 219.293 L153.334 219.293 L153.334 225.173 L148.45 225.173 L148.45 219.293 Z" fill="#000000" fill-rule="nonzero" fill-opacity="1"></path><path clip-path="url(#clip450)" d="M167.547 221.238 L183.866 221.238 L183.866 225.173 L161.922 225.173 L161.922 221.238 Q164.584 218.483 169.167 213.854 Q173.774 209.201 174.954 207.858 Q177.2 205.335 178.079 203.599 Q178.982 201.84 178.982 200.15 Q178.982 197.395 177.038 195.659 Q175.116 193.923 172.014 193.923 Q169.815 193.923 167.362 194.687 Q164.931 195.451 162.153 197.002 L162.153 192.28 Q164.977 191.145 167.431 190.567 Q169.885 189.988 171.922 189.988 Q177.292 189.988 180.487 192.673 Q183.681 195.358 183.681 199.849 Q183.681 201.979 182.871 203.9 Q182.084 205.798 179.977 208.391 Q179.399 209.062 176.297 212.28 Q173.195 215.474 167.547 221.238 Z" fill="#000000" fill-rule="nonzero" fill-opacity="1"></path><path clip-path="url(#clip450)" d="M14.479 863.481 L14.479 857.625 L64.0042 857.625 L64.0042 863.481 L14.479 863.481 Z" fill="#000000" fill-rule="nonzero" fill-opacity="1"></path><path clip-path="url(#clip450)" d="M32.4621 831.557 Q32.4621 836.268 36.1542 839.005 Q39.8145 841.742 46.212 841.742 Q52.6095 841.742 56.3017 839.037 Q59.9619 836.299 59.9619 831.557 Q59.9619 826.878 56.2698 824.141 Q52.5777 821.404 46.212 821.404 Q39.8781 821.404 36.186 824.141 Q32.4621 826.878 32.4621 831.557 M27.4968 831.557 Q27.4968 823.918 32.4621 819.558 Q37.4273 815.197 46.212 815.197 Q54.9649 815.197 59.9619 819.558 Q64.9272 823.918 64.9272 831.557 Q64.9272 839.228 59.9619 843.588 Q54.9649 847.917 46.212 847.917 Q37.4273 847.917 32.4621 843.588 Q27.4968 839.228 27.4968 831.557 Z" fill="#000000" fill-rule="nonzero" fill-opacity="1"></path><path clip-path="url(#clip450)" d="M45.7664 782.032 Q39.4007 782.032 35.8996 784.674 Q32.3984 787.283 32.3984 792.026 Q32.3984 796.737 35.8996 799.378 Q39.4007 801.988 45.7664 801.988 Q52.1003 801.988 55.6014 799.378 Q59.1026 796.737 59.1026 792.026 Q59.1026 787.283 55.6014 784.674 Q52.1003 782.032 45.7664 782.032 M59.58 776.175 Q68.683 776.175 73.1071 780.218 Q77.5631 784.26 77.5631 792.599 Q77.5631 795.686 77.0857 798.423 Q76.6401 801.161 75.6852 803.739 L69.9879 803.739 Q71.3884 801.161 72.0568 798.646 Q72.7252 796.132 72.7252 793.522 Q72.7252 787.761 69.7015 784.896 Q66.7096 782.032 60.6303 782.032 L57.7339 782.032 Q60.885 783.846 62.4446 786.679 Q64.0042 789.511 64.0042 793.458 Q64.0042 800.015 59.0071 804.025 Q54.01 808.036 45.7664 808.036 Q37.491 808.036 32.4939 804.025 Q27.4968 800.015 27.4968 793.458 Q27.4968 789.511 29.0564 786.679 Q30.616 783.846 33.7671 782.032 L28.3562 782.032 L28.3562 776.175 L59.58 776.175 Z" fill="#000000" fill-rule="nonzero" fill-opacity="1"></path><path clip-path="url(#clip450)" d="M43.5384 767.072 L43.5384 749.917 L48.7583 749.917 L48.7583 767.072 L43.5384 767.072 Z" fill="#000000" fill-rule="nonzero" fill-opacity="1"></path><path clip-path="url(#clip450)" d="M16.4842 740.336 L16.4842 733.907 L58.5933 733.907 L58.5933 710.768 L64.0042 710.768 L64.0042 740.336 L16.4842 740.336 Z" fill="#000000" fill-rule="nonzero" fill-opacity="1"></path><path clip-path="url(#clip450)" d="M32.4621 691.607 Q32.4621 696.318 36.1542 699.055 Q39.8145 701.792 46.212 701.792 Q52.6095 701.792 56.3017 699.087 Q59.9619 696.349 59.9619 691.607 Q59.9619 686.928 56.2698 684.191 Q52.5777 681.454 46.212 681.454 Q39.8781 681.454 36.186 684.191 Q32.4621 686.928 32.4621 691.607 M27.4968 691.607 Q27.4968 683.968 32.4621 679.608 Q37.4273 675.247 46.212 675.247 Q54.9649 675.247 59.9619 679.608 Q64.9272 683.968 64.9272 691.607 Q64.9272 699.278 59.9619 703.638 Q54.9649 707.967 46.212 707.967 Q37.4273 707.967 32.4621 703.638 Q27.4968 699.278 27.4968 691.607 Z" fill="#000000" fill-rule="nonzero" fill-opacity="1"></path><path clip-path="url(#clip450)" d="M29.4065 642.814 L34.9447 642.814 Q33.6716 645.296 33.035 647.97 Q32.3984 650.644 32.3984 653.508 Q32.3984 657.869 33.7352 660.065 Q35.072 662.229 37.7456 662.229 Q39.7826 662.229 40.9603 660.67 Q42.1061 659.11 43.1565 654.399 L43.6021 652.394 Q44.9389 646.156 47.3897 643.546 Q49.8086 640.904 54.1691 640.904 Q59.1344 640.904 62.0308 644.851 Q64.9272 648.766 64.9272 655.641 Q64.9272 658.505 64.3543 661.624 Q63.8132 664.712 62.6992 668.149 L56.6518 668.149 Q58.3387 664.903 59.198 661.752 Q60.0256 658.601 60.0256 655.513 Q60.0256 651.376 58.6251 649.148 Q57.1929 646.92 54.6147 646.92 Q52.2276 646.92 50.9545 648.543 Q49.6813 650.134 48.5037 655.577 L48.0262 657.614 Q46.8804 663.057 44.5251 665.476 Q42.138 667.895 38.0002 667.895 Q32.9713 667.895 30.2341 664.33 Q27.4968 660.765 27.4968 654.208 Q27.4968 650.962 27.9743 648.097 Q28.4517 645.233 29.4065 642.814 Z" fill="#000000" fill-rule="nonzero" fill-opacity="1"></path><path clip-path="url(#clip450)" d="M29.4065 608.853 L34.9447 608.853 Q33.6716 611.335 33.035 614.009 Q32.3984 616.683 32.3984 619.547 Q32.3984 623.908 33.7352 626.104 Q35.072 628.268 37.7456 628.268 Q39.7826 628.268 40.9603 626.708 Q42.1061 625.149 43.1565 620.438 L43.6021 618.433 Q44.9389 612.195 47.3897 609.585 Q49.8086 606.943 54.1691 606.943 Q59.1344 606.943 62.0308 610.89 Q64.9272 614.805 64.9272 621.68 Q64.9272 624.544 64.3543 627.663 Q63.8132 630.751 62.6992 634.188 L56.6518 634.188 Q58.3387 630.942 59.198 627.791 Q60.0256 624.64 60.0256 621.552 Q60.0256 617.415 58.6251 615.187 Q57.1929 612.959 54.6147 612.959 Q52.2276 612.959 50.9545 614.582 Q49.6813 616.173 48.5037 621.616 L48.0262 623.653 Q46.8804 629.096 44.5251 631.515 Q42.138 633.934 38.0002 633.934 Q32.9713 633.934 30.2341 630.369 Q27.4968 626.804 27.4968 620.247 Q27.4968 617.001 27.9743 614.136 Q28.4517 611.272 29.4065 608.853 Z" fill="#000000" fill-rule="nonzero" fill-opacity="1"></path><polyline clip-path="url(#clip452)" style="stroke:#009af9; stroke-linecap:round; stroke-linejoin:round; stroke-width:4; stroke-opacity:1; fill:none" points="280.231,86.1857 282.243,329.202 284.255,175.216 286.268,584.902 288.28,482.312 290.292,430.239 292.304,412.576 294.316,418.96 296.328,442.843 298.341,479.492 300.353,525.439 302.365,578.133 304.377,635.559 306.389,695.791 308.401,756.479 310.413,814.352 312.426,865.035 314.438,903.779 316.45,927.327 318.462,935.898 320.474,933.334 322.486,925.15 324.499,916.301 326.511,909.882 328.523,906.508 330.535,904.766 332.547,903.399 334.559,903.254 336.572,906.446 338.584,914.196 340.596,925.894 342.608,939.63 344.62,953.248 346.632,965.121 348.645,974.368 350.657,980.735 352.669,984.372 354.681,985.675 356.693,985.189 358.705,983.527 360.717,981.308 362.73,979.091 364.742,977.329 366.754,976.335 368.766,976.275 370.778,977.172 372.79,978.934 374.803,981.374 376.815,984.25 378.827,987.304 380.839,990.295 382.851,993.028 384.863,995.372 386.876,997.267 388.888,998.716 390.9,999.774 392.912,1000.53 394.924,1001.08 396.936,1001.52 398.949,1001.97 400.961,1002.49 402.973,1003.16 404.985,1004.02 406.997,1005.09 409.009,1006.34 411.021,1007.75 413.034,1009.24 415.046,1010.75 417.058,1012.21 419.07,1013.59 421.082,1014.85 423.094,1016.01 425.107,1017.1 427.119,1018.17 429.131,1019.27 431.143,1020.44 433.155,1021.73 435.167,1023.17 437.18,1024.76 439.192,1026.51 441.204,1028.41 443.216,1030.47 445.228,1032.68 447.24,1035.05 449.253,1037.61 451.265,1040.4 453.277,1043.47 455.289,1046.87 457.301,1050.66 459.313,1054.91 461.325,1059.68 463.338,1065.08 465.35,1071.2 467.362,1078.14 469.374,1085.95 471.386,1094.61 473.398,1104.05 475.411,1114.23 477.423,1125.15 479.435,1136.78 481.447,1149.02 483.459,1161.72 485.471,1174.46 487.484,1186.48 489.496,1197.39 491.508,1207.44 493.52,1216.73 495.532,1224.69 497.544,1230.87 499.557,1235.75 501.569,1239.82 503.581,1242.53 505.593,1243.91 507.605,1244.74 509.617,1245.14 511.629,1244.8 513.642,1244.18 515.654,1243.79 517.666,1243.19 519.678,1242.66 521.69,1242.58 523.702,1242.65 525.715,1242.86 527.727,1243.56 529.739,1244.44 531.751,1245.45 533.763,1246.8 535.775,1248.26 537.788,1249.73 539.8,1251.38 541.812,1252.99 543.824,1254.54 545.836,1256.11 547.848,1257.58 549.861,1258.91 551.873,1260.19 553.885,1261.35 555.897,1262.37 557.909,1263.33 559.921,1264.19 561.933,1264.95 563.946,1265.67 565.958,1266.34 567.97,1266.95 569.982,1267.55 571.994,1268.15 574.006,1268.73 576.019,1269.31 578.031,1269.92 580.043,1270.52 582.055,1271.14 584.067,1271.79 586.079,1272.43 588.092,1273.09 590.104,1273.76 592.116,1274.42 594.128,1275.09 596.14,1275.75 598.152,1276.41 600.165,1277.05 602.177,1277.69 604.189,1278.31 606.201,1278.92 608.213,1279.52 610.225,1280.1 612.237,1280.67 614.25,1281.24 616.262,1281.79 618.274,1282.33 620.286,1282.87 622.298,1283.4 624.31,1283.93 626.323,1284.45 628.335,1284.97 630.347,1285.48 632.359,1286 634.371,1286.51 636.383,1287.02 638.396,1287.53 640.408,1288.04 642.42,1288.54 644.432,1289.04 646.444,1289.53 648.456,1290.03 650.469,1290.52 652.481,1291 654.493,1291.48 656.505,1291.96 658.517,1292.44 660.529,1292.91 662.541,1293.38 664.554,1293.84 666.566,1294.31 668.578,1294.77 670.59,1295.22 672.602,1295.68 674.614,1296.13 676.627,1296.58 678.639,1297.02 680.651,1297.47 682.663,1297.91 684.675,1298.36 686.687,1298.79 688.7,1299.23 690.712,1299.67 692.724,1300.1 694.736,1300.53 696.748,1300.96 698.76,1301.39 700.773,1301.81 702.785,1302.23 704.797,1302.65 706.809,1303.07 708.821,1303.49 710.833,1303.9 712.845,1304.31 714.858,1304.73 716.87,1305.13 718.882,1305.54 720.894,1305.95 722.906,1306.35 724.918,1306.75 726.931,1307.15 728.943,1307.55 730.955,1307.94 732.967,1308.33 734.979,1308.73 736.991,1309.12 739.004,1309.5 741.016,1309.89 743.028,1310.27 745.04,1310.65 747.052,1311.03 749.064,1311.41 751.077,1311.79 753.089,1312.16 755.101,1312.53 757.113,1312.9 759.125,1313.27 761.137,1313.64 763.149,1314 765.162,1314.37 767.174,1314.72 769.186,1315.08 771.198,1315.44 773.21,1315.79 775.222,1316.15 777.235,1316.5 779.247,1316.84 781.259,1317.19 783.271,1317.53 785.283,1317.88 787.295,1318.22 789.308,1318.56 791.32,1318.89 793.332,1319.22 795.344,1319.56 797.356,1319.89 799.368,1320.21 801.381,1320.54 803.393,1320.86 805.405,1321.18 807.417,1321.51 809.429,1321.82 811.441,1322.14 813.453,1322.45 815.466,1322.76 817.478,1323.07 819.49,1323.38 821.502,1323.69 823.514,1323.99 825.526,1324.29 827.539,1324.59 829.551,1324.89 831.563,1325.19 833.575,1325.48 835.587,1325.77 837.599,1326.06 839.612,1326.35 841.624,1326.64 843.636,1326.92 845.648,1327.19 847.66,1327.43 849.672,1327.59 851.685,1327.48 853.697,1326.47 855.709,1322.41 857.721,1308.11 859.733,1267 861.745,1179.75 863.757,1136.26 865.77,1233.69 867.782,1307.31 869.794,1229.46 871.806,1147.62 873.818,1185.3 875.83,1283.65 877.843,1299.61 879.855,1258.54 881.867,1300.47 883.879,1319.39 885.891,1292.14 887.903,1271.52 889.916,1290.51 891.928,1306.84 893.94,1281.85 895.952,1304.45 897.964,1323.09 899.976,1299.35 901.989,1297.84 904.001,1323.78 906.013,1308.43 908.025,1308.22 910.037,1329.17 912.049,1316.82 914.061,1307.76 916.074,1324.17 918.086,1326 920.098,1316.68 922.11,1326.71 924.122,1330.48 926.134,1322.44 928.147,1322.42 930.159,1329.98 932.171,1329.65 934.183,1325.82 936.195,1329.23 938.207,1333.52 940.22,1332.1 942.232,1329.39 944.244,1332.08 946.256,1335.25 948.268,1333.28 950.28,1331.24 952.293,1333.59 954.305,1336.82 956.317,1336.42 958.329,1334.76 960.341,1335.65 962.353,1337.57 964.365,1338.06 966.378,1337.45 968.39,1336.96 970.402,1337.37 972.414,1338.71 974.426,1339.7 976.438,1339.47 978.451,1338.77 980.463,1338.65 982.475,1339.15 984.487,1340.02 986.499,1341 988.511,1341.53 990.524,1341.4 992.536,1341.05 994.548,1340.78 996.56,1340.6 998.572,1340.69 1000.58,1341.23 1002.6,1341.86 1004.61,1342.38 1006.62,1342.82 1008.63,1343.2 1010.65,1343.44 1012.66,1343.63 1014.67,1343.8 1016.68,1343.82 1018.69,1343.56 1020.71,1342.87 1022.72,1341.19 1024.73,1337.85 1026.74,1331.17 1028.75,1319.96 1030.77,1299.68 1032.78,1277.38 1034.79,1256.66 1036.8,1271.58 1038.82,1307.76 1040.83,1340.87 1042.84,1344.44 1044.85,1321.16 1046.86,1284.28 1048.88,1252.18 1050.89,1278.41 1052.9,1334.07 1054.91,1324.92 1056.92,1264.27 1058.94,1236.98 1060.95,1291.33 1062.96,1341.11 1064.97,1308.01 1066.99,1290.77 1069,1330.78 1071.01,1343.42 1073.02,1314 1075.03,1306.67 1077.05,1335.89 1079.06,1337.44 1081.07,1318.29 1083.08,1329.62 1085.1,1346.4 1087.11,1336.96 1089.12,1328.82 1091.13,1342.16 1093.14,1345.34 1095.16,1335.01 1097.17,1338.67 1099.18,1348.1 1101.19,1345.24 1103.2,1339.79 1105.22,1344.9 1107.23,1349.54 1109.24,1345.31 1111.25,1342.96 1113.27,1347.64 1115.28,1350.96 1117.29,1348.31 1119.3,1346.53 1121.31,1349.54 1123.33,1351.88 1125.34,1350.37 1127.35,1348.6 1129.36,1349.58 1131.37,1351.92 1133.39,1352.74 1135.4,1351.73 1137.41,1350.83 1139.42,1351.39 1141.44,1352.94 1143.45,1353.96 1145.46,1353.84 1147.47,1353.25 1149.48,1353.06 1151.5,1353.49 1153.51,1354.26 1155.52,1354.98 1157.53,1355.35 1159.55,1355.36 1161.56,1355.23 1163.57,1355.13 1165.58,1355.13 1167.59,1355.27 1169.61,1355.52 1171.62,1355.8 1173.63,1356.11 1175.64,1356.42 1177.65,1356.7 1179.67,1356.92 1181.68,1357.11 1183.69,1357.26 1185.7,1357.35 1187.72,1357.36 1189.73,1357.25 1191.74,1356.91 1193.75,1356.12 1195.76,1354.36 1197.78,1350.78 1199.79,1343.44 1201.8,1330.41 1203.81,1308.01 1205.82,1283.37 1207.84,1264.47 1209.85,1280.29 1211.86,1318.22 1213.87,1352.3 1215.89,1357.75 1217.9,1337.33 1219.91,1306.31 1221.92,1285.45 1223.93,1305.04 1225.95,1348.22 1227.96,1349.37 1229.97,1308.92 1231.98,1287.61 1233.99,1314.38 1236.01,1352.77 1238.02,1345.75 1240.03,1324.47 1242.04,1337.46 1244.06,1356.4 1246.07,1352.04 1248.08,1338.71 1250.09,1343.1 1252.1,1357.15 1254.12,1352.56 1256.13,1343.03 1258.14,1349.75 1260.15,1359.5 1262.17,1356.23 1264.18,1350.28 1266.19,1355.01 1268.2,1360.69 1270.21,1357.07 1272.23,1352.86 1274.24,1356.2 1276.25,1361.07 1278.26,1360.24 1280.27,1357.22 1282.29,1358.05 1284.3,1361.2 1286.31,1362.13 1288.32,1360.55 1290.34,1359.33 1292.35,1360.38 1294.36,1362.48 1296.37,1363.09 1298.38,1361.93 1300.4,1360.87 1302.41,1361.18 1304.42,1362.46 1306.43,1363.62 1308.44,1364 1310.46,1363.54 1312.47,1362.81 1314.48,1362.51 1316.49,1362.81 1318.51,1363.47 1320.52,1364.26 1322.53,1364.91 1324.54,1365.19 1326.55,1365.11 1328.57,1364.88 1330.58,1364.56 1332.59,1364.19 1334.6,1363.89 1336.62,1363.69 1338.63,1363.45 1340.64,1363.05 1342.65,1362.38 1344.66,1361.26 1346.68,1359.53 1348.69,1357 1350.7,1353.38 1352.71,1348.07 1354.72,1340.68 1356.74,1331.22 1358.75,1322.21 1360.76,1317.75 1362.77,1322.48 1364.79,1335.74 1366.8,1351.28 1368.81,1362.67 1370.82,1367.08 1372.83,1365.51 1374.85,1360.19 1376.86,1354.56 1378.87,1353.04 1380.88,1356.77 1382.89,1362.9 1384.91,1366.95 1386.92,1367.38 1388.93,1365.08 1390.94,1362.05 1392.96,1360.69 1394.97,1362.04 1396.98,1365.07 1398.99,1367.51 1401,1368.33 1403.02,1367.69 1405.03,1366.26 1407.04,1364.93 1409.05,1364.5 1411.07,1365.14 1413.08,1366.27 1415.09,1367.45 1417.1,1368.43 1419.11,1369.07 1421.13,1369.38 1423.14,1369.44 1425.15,1369.33 1427.16,1369.04 1429.17,1368.62 1431.19,1367.99 1433.2,1367.05 1435.21,1365.6 1437.22,1363.45 1439.24,1359.99 1441.25,1354.51 1443.26,1345.67 1445.27,1333.43 1447.28,1318.63 1449.3,1308.71 1451.31,1309.11 1453.32,1325.4 1455.33,1347.18 1457.34,1364.63 1459.36,1370.44 1461.37,1366.05 1463.38,1356.59 1465.39,1349 1467.41,1351.64 1469.42,1361.75 1471.43,1369.94 1473.44,1368.97 1475.45,1362.3 1477.47,1357.48 1479.48,1358.41 1481.49,1365.24 1483.5,1370.55 1485.51,1369.23 1487.53,1364.05 1489.54,1360.89 1491.55,1362.72 1493.56,1367.1 1495.58,1370.82 1497.59,1370.7 1499.6,1367.35 1501.61,1364.56 1503.62,1364.33 1505.64,1366.67 1507.65,1369.78 1509.66,1371.91 1511.67,1371.56 1513.69,1369.45 1515.7,1367.4 1517.71,1366.05 1519.72,1366.19 1521.73,1367.85 1523.75,1370.29 1525.76,1371.91 1527.77,1372.64 1529.78,1372.79 1531.79,1372.29 1533.81,1371.36 1535.82,1370.43 1537.83,1369.53 1539.84,1368.29 1541.86,1366.71 1543.87,1364.29 1545.88,1361.18 1547.89,1357.07 1549.9,1353.01 1551.92,1347.69 1553.93,1342.76 1555.94,1336.9 1557.95,1335.35 1559.96,1337.32 1561.98,1347.09 1563.99,1358.34 1566,1368.24 1568.01,1373.21 1570.03,1373.32 1572.04,1369.94 1574.05,1365.58 1576.06,1363.75 1578.07,1365.2 1580.09,1369.15 1582.1,1372.6 1584.11,1374.09 1586.12,1373.39 1588.14,1371.49 1590.15,1369.97 1592.16,1369.69 1594.17,1370.83 1596.18,1372.44 1598.2,1373.87 1600.21,1374.62 1602.22,1374.63 1604.23,1374.13 1606.24,1373.41 1608.26,1372.74 1610.27,1372.18 1612.28,1371.84 1614.29,1371.55 1616.31,1371.4 1618.32,1371.13 1620.33,1370.81 1622.34,1370.06 1624.35,1368.94 1626.37,1366.88 1628.38,1363.96 1630.39,1359.04 1632.4,1352.78 1634.41,1343.16 1636.43,1334.13 1638.44,1324.03 1640.45,1324.16 1642.46,1330.17 1644.48,1347.65 1646.49,1363.83 1648.5,1374.06 1650.51,1374.96 1652.52,1369.02 1654.54,1362.13 1656.55,1359.6 1658.56,1365.27 1660.57,1372.61 1662.59,1375.64 1664.6,1372.99 1666.61,1368.47 1668.62,1366.91 1670.63,1369.3 1672.65,1373.88 1674.66,1375.94 1676.67,1374.35 1678.68,1371.55 1680.69,1369.92 1682.71,1370.97 1684.72,1373.6 1686.73,1375.96 1688.74,1376.3 1690.76,1375.06 1692.77,1373.44 1694.78,1372.11 1696.79,1372.05 1698.8,1373.08 1700.82,1374.64 1702.83,1375.83 1704.84,1376.67 1706.85,1377.09 1708.86,1377.08 1710.88,1376.85 1712.89,1376.46 1714.9,1375.85 1716.91,1374.93 1718.93,1373.58 1720.94,1371.26 1722.95,1367.92 1724.96,1362.23 1726.97,1354.2 1728.99,1340.08 1731,1324.62 1733.01,1304.88 1735.02,1304.77 1737.03,1315.94 1739.05,1347.44 1741.06,1370.75 1743.07,1377 1745.08,1367.46 1747.1,1352.97 1749.11,1351.17 1751.12,1362.2 1753.13,1375.72 1755.14,1373.95 1757.16,1362.73 1759.17,1359.45 1761.18,1365.87 1763.19,1375.22 1765.21,1374.69 1767.22,1366.91 1769.23,1365.18 1771.24,1370.87 1773.25,1376.64 1775.27,1375.53 1777.28,1371.4 1779.29,1370.87 1781.3,1373.87 1783.31,1377.23 1785.33,1377.28 1787.34,1375 1789.35,1373.94 1791.36,1374.92 1793.38,1376.9 1795.39,1378.13 1797.4,1377.94 1799.41,1376.88 1801.42,1376.04 1803.44,1376.08 1805.45,1376.65 1807.46,1377.54 1809.47,1378.29 1811.48,1378.72 1813.5,1378.84 1815.51,1378.71 1817.52,1378.39 1819.53,1377.95 1821.55,1377.41 1823.56,1376.61 1825.57,1375.59 1827.58,1373.93 1829.59,1371.53 1831.61,1367.02 1833.62,1360.41 1835.63,1348.35 1837.64,1334.89 1839.66,1315.25 1841.67,1309.38 1843.68,1308.47 1845.69,1333.96 1847.7,1359.49 1849.72,1377.14 1851.73,1376.62 1853.74,1364.05 1855.75,1355.03 1857.76,1357.18 1859.78,1371.92 1861.79,1378.63 1863.8,1371.38 1865.81,1363.6 1867.83,1364.76 1869.84,1374.25 1871.85,1378.16 1873.86,1373.17 1875.87,1368.67 1877.89,1370.73 1879.9,1376.88 1881.91,1378.58 1883.92,1375.56 1885.93,1373.33 1887.95,1374.33 1889.96,1377.67 1891.97,1379.39 1893.98,1378.3 1896,1376.55 1898.01,1376.07 1900.02,1377.29 1902.03,1378.9 1904.04,1379.85 1906.06,1379.68 1908.07,1378.89 1910.08,1378.15 1912.09,1377.72 1914.11,1377.85 1916.12,1378.23 1918.13,1378.8 1920.14,1379.36 1922.15,1379.86 1924.17,1380.2 1926.18,1380.43 1928.19,1380.59 1930.2,1380.68 1932.21,1380.76 1934.23,1380.82 1936.24,1380.85 1938.25,1380.87 1940.26,1380.86 1942.28,1380.77 1944.29,1380.54 1946.3,1379.99 1948.31,1378.71 1950.32,1375.57 1952.34,1368.58 1954.35,1351.58 1956.36,1320.9 1958.37,1262.9 1960.38,1232.8 1962.4,1228.81 1964.41,1323.11 1966.42,1379.69 1968.43,1351.38 1970.45,1300.33 1972.46,1288.9 1974.47,1361.08 1976.48,1357.23 1978.49,1313.59 1980.51,1355.27 1982.52,1372.06 1984.53,1340.77 1986.54,1359.64 1988.55,1371.46 1990.57,1353.02 1992.58,1368.14 1994.59,1371.33 1996.6,1359.75 1998.62,1371.87 2000.63,1371.02 2002.64,1365.08 2004.65,1375.22 2006.66,1371.86 2008.68,1368.06 2010.69,1376.11 2012.7,1373.83 2014.71,1371.11 2016.73,1377.09 2018.74,1376.05 2020.75,1373 2022.76,1376.55 2024.77,1378.08 2026.79,1375.8 2028.8,1376.29 2030.81,1378.62 2032.82,1378.94 2034.83,1377.29 2036.85,1377.6 2038.86,1379.83 2040.87,1379.65 2042.88,1378.11 2044.9,1378.47 2046.91,1379.78 2048.92,1380.48 2050.93,1380.24 2052.94,1379.47 2054.96,1379.46 2056.97,1380.39 2058.98,1381.18 2060.99,1381.28 2063,1381.06 2065.02,1380.73 2067.03,1380.61 2069.04,1380.99 2071.05,1381.43 2073.07,1381.8 2075.08,1382.09 2077.09,1382.12 2079.1,1381.97 2081.11,1381.81 2083.13,1381.63 2085.14,1381.4 2087.15,1381.3 2089.16,1381.14 2091.18,1380.89 2093.19,1380.43 2095.2,1379.7 2097.21,1378.29 2099.22,1376.25 2101.24,1372.28 2103.25,1366.19 2105.26,1353.78 2107.27,1338.16 2109.28,1311.3 2111.3,1300.76 2113.31,1292.92 2115.32,1326.99 2117.33,1359.86 2119.35,1381.05 2121.36,1376.02 2123.37,1357.1 2125.38,1351.61 2127.39,1362.39 2129.41,1379.85 2131.42,1376.42 2133.43,1361.88 2135.44,1363.83 2137.45,1375.62 2139.47,1380.31 2141.48,1372.73 2143.49,1368.05 2145.5,1375.81 2147.52,1381.48 2149.53,1377.57 2151.54,1373.89 2153.55,1376.97 2155.56,1381.52 2157.58,1380.43 2159.59,1376.93 2161.6,1377.19 2163.61,1380.37 2165.63,1382.29 2167.64,1380.71 2169.65,1378.44 2171.66,1378.73 2173.67,1380.65 2175.69,1382.4 2177.7,1382.46 2179.71,1381.09 2181.72,1379.94 2183.73,1379.77 2185.75,1380.71 2187.76,1381.97 2189.77,1382.96 2191.78,1383.14 2193.8,1382.73 2195.81,1382.07 2197.82,1381.25 2199.83,1380.7 2201.84,1380.31 2203.86,1380.14 2205.87,1379.78 2207.88,1379.46 2209.89,1378.64 2211.9,1377.8 2213.92,1376.13 2215.93,1374.11 2217.94,1369.9 2219.95,1364.88 2221.97,1355.37 2223.98,1347.6 2225.99,1334.85 2228,1333.88 2230.01,1331.93 2232.03,1347.98 2234.04,1363.43 2236.05,1378.59 2238.06,1383.42 2240.07,1378.45 2242.09,1370.7 2244.1,1366.71 2246.11,1372.88 2248.12,1380.59 2250.14,1383.03 2252.15,1379.11 2254.16,1374.34 2256.17,1374.87 2258.18,1378.98 2260.2,1382.95 2262.21,1382.55 2264.22,1379.3 2266.23,1377.38 2268.25,1377.88 2270.26,1380.9 2272.27,1383.39 2274.28,1383.53 2276.29,1381.87 2278.31,1379.95 2280.32,1379.09 2282.33,1379.37 2284.34,1381.09 2286.35,1382.65 2288.37,1383.73 2290.38,1384.24 2292.39,1384.24 "></polyline>
</svg>