<svg xmlns="http://www.w3.org/2000/svg" xmlns:xlink="http://www.w3.org/1999/xlink" width="600" height="400" viewBox="0 0 2400 1600">
<defs>
  <clipPath id="clip260">
    <rect x="0" y="0" width="2400" height="1600"></rect>
  </clipPath>
</defs>
<path clip-path="url(#clip260)" d="M0 1600 L2400 1600 L2400 0 L0 0  Z" fill="#ffffff" fill-rule="evenodd" fill-opacity="1"></path>
<defs>
  <clipPath id="clip261">
    <rect x="480" y="0" width="1681" height="1600"></rect>
  </clipPath>
</defs>
<path clip-path="url(#clip260)" d="M219.38 1423.18 L2352.76 1423.18 L2352.76 47.2441 L219.38 47.2441  Z" fill="#ffffff" fill-rule="evenodd" fill-opacity="1"></path>
<defs>
  <clipPath id="clip262">
    <rect x="219" y="47" width="2134" height="1377"></rect>
  </clipPath>
</defs>
<polyline clip-path="url(#clip262)" style="stroke:#000000; stroke-linecap:round; stroke-linejoin:round; stroke-width:2; stroke-opacity:0.1; fill:none" points="275.733,1423.18 275.733,47.2441 "></polyline>
<polyline clip-path="url(#clip262)" style="stroke:#000000; stroke-linecap:round; stroke-linejoin:round; stroke-width:2; stroke-opacity:0.1; fill:none" points="678.257,1423.18 678.257,47.2441 "></polyline>
<polyline clip-path="url(#clip262)" style="stroke:#000000; stroke-linecap:round; stroke-linejoin:round; stroke-width:2; stroke-opacity:0.1; fill:none" points="1080.78,1423.18 1080.78,47.2441 "></polyline>
<polyline clip-path="url(#clip262)" style="stroke:#000000; stroke-linecap:round; stroke-linejoin:round; stroke-width:2; stroke-opacity:0.1; fill:none" points="1483.3,1423.18 1483.3,47.2441 "></polyline>
<polyline clip-path="url(#clip262)" style="stroke:#000000; stroke-linecap:round; stroke-linejoin:round; stroke-width:2; stroke-opacity:0.1; fill:none" points="1885.83,1423.18 1885.83,47.2441 "></polyline>
<polyline clip-path="url(#clip262)" style="stroke:#000000; stroke-linecap:round; stroke-linejoin:round; stroke-width:2; stroke-opacity:0.1; fill:none" points="2288.35,1423.18 2288.35,47.2441 "></polyline>
<polyline clip-path="url(#clip260)" style="stroke:#000000; stroke-linecap:round; stroke-linejoin:round; stroke-width:4; stroke-opacity:1; fill:none" points="219.38,1423.18 2352.76,1423.18 "></polyline>
<polyline clip-path="url(#clip260)" style="stroke:#000000; stroke-linecap:round; stroke-linejoin:round; stroke-width:4; stroke-opacity:1; fill:none" points="275.733,1423.18 275.733,1404.28 "></polyline>
<polyline clip-path="url(#clip260)" style="stroke:#000000; stroke-linecap:round; stroke-linejoin:round; stroke-width:4; stroke-opacity:1; fill:none" points="678.257,1423.18 678.257,1404.28 "></polyline>
<polyline clip-path="url(#clip260)" style="stroke:#000000; stroke-linecap:round; stroke-linejoin:round; stroke-width:4; stroke-opacity:1; fill:none" points="1080.78,1423.18 1080.78,1404.28 "></polyline>
<polyline clip-path="url(#clip260)" style="stroke:#000000; stroke-linecap:round; stroke-linejoin:round; stroke-width:4; stroke-opacity:1; fill:none" points="1483.3,1423.18 1483.3,1404.28 "></polyline>
<polyline clip-path="url(#clip260)" style="stroke:#000000; stroke-linecap:round; stroke-linejoin:round; stroke-width:4; stroke-opacity:1; fill:none" points="1885.83,1423.18 1885.83,1404.28 "></polyline>
<polyline clip-path="url(#clip260)" style="stroke:#000000; stroke-linecap:round; stroke-linejoin:round; stroke-width:4; stroke-opacity:1; fill:none" points="2288.35,1423.18 2288.35,1404.28 "></polyline>
<path clip-path="url(#clip260)" d="M275.733 1454.1 Q272.122 1454.1 270.294 1457.66 Q268.488 1461.2 268.488 1468.33 Q268.488 1475.44 270.294 1479.01 Q272.122 1482.55 275.733 1482.55 Q279.368 1482.55 281.173 1479.01 Q283.002 1475.44 283.002 1468.33 Q283.002 1461.2 281.173 1457.66 Q279.368 1454.1 275.733 1454.1 M275.733 1450.39 Q281.544 1450.39 284.599 1455 Q287.678 1459.58 287.678 1468.33 Q287.678 1477.06 284.599 1481.67 Q281.544 1486.25 275.733 1486.25 Q269.923 1486.25 266.845 1481.67 Q263.789 1477.06 263.789 1468.33 Q263.789 1459.58 266.845 1455 Q269.923 1450.39 275.733 1450.39 Z" fill="#000000" fill-rule="nonzero" fill-opacity="1"></path><path clip-path="url(#clip260)" d="M637.864 1481.64 L645.503 1481.64 L645.503 1455.28 L637.193 1456.95 L637.193 1452.69 L645.456 1451.02 L650.132 1451.02 L650.132 1481.64 L657.771 1481.64 L657.771 1485.58 L637.864 1485.58 L637.864 1481.64 Z" fill="#000000" fill-rule="nonzero" fill-opacity="1"></path><path clip-path="url(#clip260)" d="M677.216 1454.1 Q673.604 1454.1 671.776 1457.66 Q669.97 1461.2 669.97 1468.33 Q669.97 1475.44 671.776 1479.01 Q673.604 1482.55 677.216 1482.55 Q680.85 1482.55 682.655 1479.01 Q684.484 1475.44 684.484 1468.33 Q684.484 1461.2 682.655 1457.66 Q680.85 1454.1 677.216 1454.1 M677.216 1450.39 Q683.026 1450.39 686.081 1455 Q689.16 1459.58 689.16 1468.33 Q689.16 1477.06 686.081 1481.67 Q683.026 1486.25 677.216 1486.25 Q671.405 1486.25 668.327 1481.67 Q665.271 1477.06 665.271 1468.33 Q665.271 1459.58 668.327 1455 Q671.405 1450.39 677.216 1450.39 Z" fill="#000000" fill-rule="nonzero" fill-opacity="1"></path><path clip-path="url(#clip260)" d="M707.377 1454.1 Q703.766 1454.1 701.938 1457.66 Q700.132 1461.2 700.132 1468.33 Q700.132 1475.44 701.938 1479.01 Q703.766 1482.55 707.377 1482.55 Q711.012 1482.55 712.817 1479.01 Q714.646 1475.44 714.646 1468.33 Q714.646 1461.2 712.817 1457.66 Q711.012 1454.1 707.377 1454.1 M707.377 1450.39 Q713.188 1450.39 716.243 1455 Q719.322 1459.58 719.322 1468.33 Q719.322 1477.06 716.243 1481.67 Q713.188 1486.25 707.377 1486.25 Q701.567 1486.25 698.489 1481.67 Q695.433 1477.06 695.433 1468.33 Q695.433 1459.58 698.489 1455 Q701.567 1450.39 707.377 1450.39 Z" fill="#000000" fill-rule="nonzero" fill-opacity="1"></path><path clip-path="url(#clip260)" d="M1044.47 1481.64 L1060.79 1481.64 L1060.79 1485.58 L1038.85 1485.58 L1038.85 1481.64 Q1041.51 1478.89 1046.09 1474.26 Q1050.7 1469.61 1051.88 1468.27 Q1054.13 1465.74 1055.01 1464.01 Q1055.91 1462.25 1055.91 1460.56 Q1055.91 1457.8 1053.96 1456.07 Q1052.04 1454.33 1048.94 1454.33 Q1046.74 1454.33 1044.29 1455.09 Q1041.86 1455.86 1039.08 1457.41 L1039.08 1452.69 Q1041.9 1451.55 1044.36 1450.97 Q1046.81 1450.39 1048.85 1450.39 Q1054.22 1450.39 1057.41 1453.08 Q1060.61 1455.77 1060.61 1460.26 Q1060.61 1462.39 1059.8 1464.31 Q1059.01 1466.2 1056.9 1468.8 Q1056.33 1469.47 1053.22 1472.69 Q1050.12 1475.88 1044.47 1481.64 Z" fill="#000000" fill-rule="nonzero" fill-opacity="1"></path><path clip-path="url(#clip260)" d="M1080.61 1454.1 Q1077 1454.1 1075.17 1457.66 Q1073.36 1461.2 1073.36 1468.33 Q1073.36 1475.44 1075.17 1479.01 Q1077 1482.55 1080.61 1482.55 Q1084.24 1482.55 1086.05 1479.01 Q1087.88 1475.44 1087.88 1468.33 Q1087.88 1461.2 1086.05 1457.66 Q1084.24 1454.1 1080.61 1454.1 M1080.61 1450.39 Q1086.42 1450.39 1089.47 1455 Q1092.55 1459.58 1092.55 1468.33 Q1092.55 1477.06 1089.47 1481.67 Q1086.42 1486.25 1080.61 1486.25 Q1074.8 1486.25 1071.72 1481.67 Q1068.66 1477.06 1068.66 1468.33 Q1068.66 1459.58 1071.72 1455 Q1074.8 1450.39 1080.61 1450.39 Z" fill="#000000" fill-rule="nonzero" fill-opacity="1"></path><path clip-path="url(#clip260)" d="M1110.77 1454.1 Q1107.16 1454.1 1105.33 1457.66 Q1103.52 1461.2 1103.52 1468.33 Q1103.52 1475.44 1105.33 1479.01 Q1107.16 1482.55 1110.77 1482.55 Q1114.4 1482.55 1116.21 1479.01 Q1118.04 1475.44 1118.04 1468.33 Q1118.04 1461.2 1116.21 1457.66 Q1114.4 1454.1 1110.77 1454.1 M1110.77 1450.39 Q1116.58 1450.39 1119.63 1455 Q1122.71 1459.58 1122.71 1468.33 Q1122.71 1477.06 1119.63 1481.67 Q1116.58 1486.25 1110.77 1486.25 Q1104.96 1486.25 1101.88 1481.67 Q1098.82 1477.06 1098.82 1468.33 Q1098.82 1459.58 1101.88 1455 Q1104.96 1450.39 1110.77 1450.39 Z" fill="#000000" fill-rule="nonzero" fill-opacity="1"></path><path clip-path="url(#clip260)" d="M1457.07 1466.95 Q1460.42 1467.66 1462.3 1469.93 Q1464.2 1472.2 1464.2 1475.53 Q1464.2 1480.65 1460.68 1483.45 Q1457.16 1486.25 1450.68 1486.25 Q1448.5 1486.25 1446.19 1485.81 Q1443.9 1485.39 1441.44 1484.54 L1441.44 1480.02 Q1443.39 1481.16 1445.7 1481.74 Q1448.02 1482.32 1450.54 1482.32 Q1454.94 1482.32 1457.23 1480.58 Q1459.54 1478.84 1459.54 1475.53 Q1459.54 1472.48 1457.39 1470.77 Q1455.26 1469.03 1451.44 1469.03 L1447.41 1469.03 L1447.41 1465.19 L1451.63 1465.19 Q1455.08 1465.19 1456.9 1463.82 Q1458.73 1462.43 1458.73 1459.84 Q1458.73 1457.18 1456.83 1455.77 Q1454.96 1454.33 1451.44 1454.33 Q1449.52 1454.33 1447.32 1454.75 Q1445.12 1455.16 1442.48 1456.04 L1442.48 1451.88 Q1445.15 1451.14 1447.46 1450.77 Q1449.8 1450.39 1451.86 1450.39 Q1457.18 1450.39 1460.28 1452.83 Q1463.39 1455.23 1463.39 1459.35 Q1463.39 1462.22 1461.74 1464.21 Q1460.1 1466.18 1457.07 1466.95 Z" fill="#000000" fill-rule="nonzero" fill-opacity="1"></path><path clip-path="url(#clip260)" d="M1483.06 1454.1 Q1479.45 1454.1 1477.62 1457.66 Q1475.82 1461.2 1475.82 1468.33 Q1475.82 1475.44 1477.62 1479.01 Q1479.45 1482.55 1483.06 1482.55 Q1486.7 1482.55 1488.5 1479.01 Q1490.33 1475.44 1490.33 1468.33 Q1490.33 1461.2 1488.5 1457.66 Q1486.7 1454.1 1483.06 1454.1 M1483.06 1450.39 Q1488.87 1450.39 1491.93 1455 Q1495.01 1459.58 1495.01 1468.33 Q1495.01 1477.06 1491.93 1481.67 Q1488.87 1486.25 1483.06 1486.25 Q1477.25 1486.25 1474.17 1481.67 Q1471.12 1477.06 1471.12 1468.33 Q1471.12 1459.58 1474.17 1455 Q1477.25 1450.39 1483.06 1450.39 Z" fill="#000000" fill-rule="nonzero" fill-opacity="1"></path><path clip-path="url(#clip260)" d="M1513.22 1454.1 Q1509.61 1454.1 1507.78 1457.66 Q1505.98 1461.2 1505.98 1468.33 Q1505.98 1475.44 1507.78 1479.01 Q1509.61 1482.55 1513.22 1482.55 Q1516.86 1482.55 1518.66 1479.01 Q1520.49 1475.44 1520.49 1468.33 Q1520.49 1461.2 1518.66 1457.66 Q1516.86 1454.1 1513.22 1454.1 M1513.22 1450.39 Q1519.03 1450.39 1522.09 1455 Q1525.17 1459.58 1525.17 1468.33 Q1525.17 1477.06 1522.09 1481.67 Q1519.03 1486.25 1513.22 1486.25 Q1507.41 1486.25 1504.33 1481.67 Q1501.28 1477.06 1501.28 1468.33 Q1501.28 1459.58 1504.33 1455 Q1507.41 1450.39 1513.22 1450.39 Z" fill="#000000" fill-rule="nonzero" fill-opacity="1"></path><path clip-path="url(#clip260)" d="M1858.92 1455.09 L1847.11 1473.54 L1858.92 1473.54 L1858.92 1455.09 M1857.69 1451.02 L1863.57 1451.02 L1863.57 1473.54 L1868.5 1473.54 L1868.5 1477.43 L1863.57 1477.43 L1863.57 1485.58 L1858.92 1485.58 L1858.92 1477.43 L1843.32 1477.43 L1843.32 1472.92 L1857.69 1451.02 Z" fill="#000000" fill-rule="nonzero" fill-opacity="1"></path><path clip-path="url(#clip260)" d="M1886.23 1454.1 Q1882.62 1454.1 1880.79 1457.66 Q1878.99 1461.2 1878.99 1468.33 Q1878.99 1475.44 1880.79 1479.01 Q1882.62 1482.55 1886.23 1482.55 Q1889.87 1482.55 1891.67 1479.01 Q1893.5 1475.44 1893.5 1468.33 Q1893.5 1461.2 1891.67 1457.66 Q1889.87 1454.1 1886.23 1454.1 M1886.23 1450.39 Q1892.04 1450.39 1895.1 1455 Q1898.18 1459.58 1898.18 1468.33 Q1898.18 1477.06 1895.1 1481.67 Q1892.04 1486.25 1886.23 1486.25 Q1880.42 1486.25 1877.34 1481.67 Q1874.29 1477.06 1874.29 1468.33 Q1874.29 1459.58 1877.34 1455 Q1880.42 1450.39 1886.23 1450.39 Z" fill="#000000" fill-rule="nonzero" fill-opacity="1"></path><path clip-path="url(#clip260)" d="M1916.4 1454.1 Q1912.78 1454.1 1910.96 1457.66 Q1909.15 1461.2 1909.15 1468.33 Q1909.15 1475.44 1910.96 1479.01 Q1912.78 1482.55 1916.4 1482.55 Q1920.03 1482.55 1921.84 1479.01 Q1923.66 1475.44 1923.66 1468.33 Q1923.66 1461.2 1921.84 1457.66 Q1920.03 1454.1 1916.4 1454.1 M1916.4 1450.39 Q1922.21 1450.39 1925.26 1455 Q1928.34 1459.58 1928.34 1468.33 Q1928.34 1477.06 1925.26 1481.67 Q1922.21 1486.25 1916.4 1486.25 Q1910.59 1486.25 1907.51 1481.67 Q1904.45 1477.06 1904.45 1468.33 Q1904.45 1459.58 1907.51 1455 Q1910.59 1450.39 1916.4 1450.39 Z" fill="#000000" fill-rule="nonzero" fill-opacity="1"></path><path clip-path="url(#clip260)" d="M2247.97 1451.02 L2266.33 1451.02 L2266.33 1454.96 L2252.25 1454.96 L2252.25 1463.43 Q2253.27 1463.08 2254.29 1462.92 Q2255.31 1462.73 2256.33 1462.73 Q2262.11 1462.73 2265.49 1465.9 Q2268.87 1469.08 2268.87 1474.49 Q2268.87 1480.07 2265.4 1483.17 Q2261.93 1486.25 2255.61 1486.25 Q2253.43 1486.25 2251.16 1485.88 Q2248.92 1485.51 2246.51 1484.77 L2246.51 1480.07 Q2248.6 1481.2 2250.82 1481.76 Q2253.04 1482.32 2255.52 1482.32 Q2259.52 1482.32 2261.86 1480.21 Q2264.2 1478.1 2264.2 1474.49 Q2264.2 1470.88 2261.86 1468.77 Q2259.52 1466.67 2255.52 1466.67 Q2253.64 1466.67 2251.77 1467.08 Q2249.91 1467.5 2247.97 1468.38 L2247.97 1451.02 Z" fill="#000000" fill-rule="nonzero" fill-opacity="1"></path><path clip-path="url(#clip260)" d="M2288.09 1454.1 Q2284.47 1454.1 2282.65 1457.66 Q2280.84 1461.2 2280.84 1468.33 Q2280.84 1475.44 2282.65 1479.01 Q2284.47 1482.55 2288.09 1482.55 Q2291.72 1482.55 2293.53 1479.01 Q2295.35 1475.44 2295.35 1468.33 Q2295.35 1461.2 2293.53 1457.66 Q2291.72 1454.1 2288.09 1454.1 M2288.09 1450.39 Q2293.9 1450.39 2296.95 1455 Q2300.03 1459.58 2300.03 1468.33 Q2300.03 1477.06 2296.95 1481.67 Q2293.9 1486.25 2288.09 1486.25 Q2282.28 1486.25 2279.2 1481.67 Q2276.14 1477.06 2276.14 1468.33 Q2276.14 1459.58 2279.2 1455 Q2282.28 1450.39 2288.09 1450.39 Z" fill="#000000" fill-rule="nonzero" fill-opacity="1"></path><path clip-path="url(#clip260)" d="M2318.25 1454.1 Q2314.64 1454.1 2312.81 1457.66 Q2311 1461.2 2311 1468.33 Q2311 1475.44 2312.81 1479.01 Q2314.64 1482.55 2318.25 1482.55 Q2321.88 1482.55 2323.69 1479.01 Q2325.52 1475.44 2325.52 1468.33 Q2325.52 1461.2 2323.69 1457.66 Q2321.88 1454.1 2318.25 1454.1 M2318.25 1450.39 Q2324.06 1450.39 2327.11 1455 Q2330.19 1459.58 2330.19 1468.33 Q2330.19 1477.06 2327.11 1481.67 Q2324.06 1486.25 2318.25 1486.25 Q2312.44 1486.25 2309.36 1481.67 Q2306.3 1477.06 2306.3 1468.33 Q2306.3 1459.58 2309.36 1455 Q2312.44 1450.39 2318.25 1450.39 Z" fill="#000000" fill-rule="nonzero" fill-opacity="1"></path><path clip-path="url(#clip260)" d="M1135.63 1520.52 L1142.06 1520.52 L1142.06 1568.04 L1135.63 1568.04 L1135.63 1520.52 Z" fill="#000000" fill-rule="nonzero" fill-opacity="1"></path><path clip-path="url(#clip260)" d="M1160.39 1522.27 L1160.39 1532.4 L1172.46 1532.4 L1172.46 1536.95 L1160.39 1536.95 L1160.39 1556.3 Q1160.39 1560.66 1161.57 1561.9 Q1162.78 1563.14 1166.44 1563.14 L1172.46 1563.14 L1172.46 1568.04 L1166.44 1568.04 Q1159.66 1568.04 1157.08 1565.53 Q1154.5 1562.98 1154.5 1556.3 L1154.5 1536.95 L1150.21 1536.95 L1150.21 1532.4 L1154.5 1532.4 L1154.5 1522.27 L1160.39 1522.27 Z" fill="#000000" fill-rule="nonzero" fill-opacity="1"></path><path clip-path="url(#clip260)" d="M1210.65 1548.76 L1210.65 1551.62 L1183.72 1551.62 Q1184.11 1557.67 1187.35 1560.85 Q1190.63 1564 1196.45 1564 Q1199.83 1564 1202.98 1563.17 Q1206.16 1562.35 1209.28 1560.69 L1209.28 1566.23 Q1206.13 1567.57 1202.82 1568.27 Q1199.51 1568.97 1196.1 1568.97 Q1187.57 1568.97 1182.58 1564 Q1177.61 1559.04 1177.61 1550.57 Q1177.61 1541.82 1182.32 1536.69 Q1187.07 1531.54 1195.09 1531.54 Q1202.28 1531.54 1206.45 1536.18 Q1210.65 1540.8 1210.65 1548.76 M1204.79 1547.04 Q1204.73 1542.23 1202.09 1539.37 Q1199.48 1536.5 1195.15 1536.5 Q1190.25 1536.5 1187.29 1539.27 Q1184.36 1542.04 1183.91 1547.07 L1204.79 1547.04 Z" fill="#000000" fill-rule="nonzero" fill-opacity="1"></path><path clip-path="url(#clip260)" d="M1240.92 1537.87 Q1239.93 1537.3 1238.75 1537.04 Q1237.61 1536.76 1236.21 1536.76 Q1231.24 1536.76 1228.57 1540 Q1225.93 1543.22 1225.93 1549.27 L1225.93 1568.04 L1220.04 1568.04 L1220.04 1532.4 L1225.93 1532.4 L1225.93 1537.93 Q1227.77 1534.69 1230.73 1533.13 Q1233.69 1531.54 1237.93 1531.54 Q1238.53 1531.54 1239.26 1531.63 Q1240 1531.7 1240.89 1531.85 L1240.92 1537.87 Z" fill="#000000" fill-rule="nonzero" fill-opacity="1"></path><path clip-path="url(#clip260)" d="M1263.26 1550.12 Q1256.17 1550.12 1253.43 1551.75 Q1250.69 1553.37 1250.69 1557.29 Q1250.69 1560.4 1252.73 1562.25 Q1254.8 1564.07 1258.33 1564.07 Q1263.2 1564.07 1266.13 1560.63 Q1269.09 1557.16 1269.09 1551.43 L1269.09 1550.12 L1263.26 1550.12 M1274.94 1547.71 L1274.94 1568.04 L1269.09 1568.04 L1269.09 1562.63 Q1267.08 1565.88 1264.09 1567.44 Q1261.1 1568.97 1256.77 1568.97 Q1251.3 1568.97 1248.05 1565.91 Q1244.83 1562.82 1244.83 1557.67 Q1244.83 1551.65 1248.84 1548.6 Q1252.89 1545.54 1260.88 1545.54 L1269.09 1545.54 L1269.09 1544.97 Q1269.09 1540.93 1266.41 1538.73 Q1263.77 1536.5 1258.97 1536.5 Q1255.91 1536.5 1253.01 1537.23 Q1250.12 1537.97 1247.44 1539.43 L1247.44 1534.02 Q1250.66 1532.78 1253.68 1532.17 Q1256.71 1531.54 1259.57 1531.54 Q1267.31 1531.54 1271.12 1535.55 Q1274.94 1539.56 1274.94 1547.71 Z" fill="#000000" fill-rule="nonzero" fill-opacity="1"></path><path clip-path="url(#clip260)" d="M1292.8 1522.27 L1292.8 1532.4 L1304.86 1532.4 L1304.86 1536.95 L1292.8 1536.95 L1292.8 1556.3 Q1292.8 1560.66 1293.98 1561.9 Q1295.19 1563.14 1298.85 1563.14 L1304.86 1563.14 L1304.86 1568.04 L1298.85 1568.04 Q1292.07 1568.04 1289.49 1565.53 Q1286.91 1562.98 1286.91 1556.3 L1286.91 1536.95 L1282.61 1536.95 L1282.61 1532.4 L1286.91 1532.4 L1286.91 1522.27 L1292.8 1522.27 Z" fill="#000000" fill-rule="nonzero" fill-opacity="1"></path><path clip-path="url(#clip260)" d="M1312.57 1532.4 L1318.42 1532.4 L1318.42 1568.04 L1312.57 1568.04 L1312.57 1532.4 M1312.57 1518.52 L1318.42 1518.52 L1318.42 1525.93 L1312.57 1525.93 L1312.57 1518.52 Z" fill="#000000" fill-rule="nonzero" fill-opacity="1"></path><path clip-path="url(#clip260)" d="M1344.49 1536.5 Q1339.78 1536.5 1337.04 1540.19 Q1334.3 1543.85 1334.3 1550.25 Q1334.3 1556.65 1337.01 1560.34 Q1339.75 1564 1344.49 1564 Q1349.17 1564 1351.91 1560.31 Q1354.64 1556.62 1354.64 1550.25 Q1354.64 1543.92 1351.91 1540.23 Q1349.17 1536.5 1344.49 1536.5 M1344.49 1531.54 Q1352.13 1531.54 1356.49 1536.5 Q1360.85 1541.47 1360.85 1550.25 Q1360.85 1559 1356.49 1564 Q1352.13 1568.97 1344.49 1568.97 Q1336.82 1568.97 1332.46 1564 Q1328.13 1559 1328.13 1550.25 Q1328.13 1541.47 1332.46 1536.5 Q1336.82 1531.54 1344.49 1531.54 Z" fill="#000000" fill-rule="nonzero" fill-opacity="1"></path><path clip-path="url(#clip260)" d="M1400.19 1546.53 L1400.19 1568.04 L1394.33 1568.04 L1394.33 1546.72 Q1394.33 1541.66 1392.36 1539.14 Q1390.39 1536.63 1386.44 1536.63 Q1381.7 1536.63 1378.96 1539.65 Q1376.22 1542.68 1376.22 1547.9 L1376.22 1568.04 L1370.33 1568.04 L1370.33 1532.4 L1376.22 1532.4 L1376.22 1537.93 Q1378.32 1534.72 1381.16 1533.13 Q1384.02 1531.54 1387.74 1531.54 Q1393.89 1531.54 1397.04 1535.36 Q1400.19 1539.14 1400.19 1546.53 Z" fill="#000000" fill-rule="nonzero" fill-opacity="1"></path><path clip-path="url(#clip260)" d="M1434.6 1533.45 L1434.6 1538.98 Q1432.11 1537.71 1429.44 1537.07 Q1426.77 1536.44 1423.9 1536.44 Q1419.54 1536.44 1417.34 1537.77 Q1415.18 1539.11 1415.18 1541.79 Q1415.18 1543.82 1416.74 1545 Q1418.3 1546.15 1423.01 1547.2 L1425.02 1547.64 Q1431.25 1548.98 1433.86 1551.43 Q1436.51 1553.85 1436.51 1558.21 Q1436.51 1563.17 1432.56 1566.07 Q1428.64 1568.97 1421.77 1568.97 Q1418.9 1568.97 1415.79 1568.39 Q1412.7 1567.85 1409.26 1566.74 L1409.26 1560.69 Q1412.51 1562.38 1415.66 1563.24 Q1418.81 1564.07 1421.9 1564.07 Q1426.03 1564.07 1428.26 1562.66 Q1430.49 1561.23 1430.49 1558.65 Q1430.49 1556.27 1428.87 1554.99 Q1427.28 1553.72 1421.83 1552.54 L1419.8 1552.07 Q1414.35 1550.92 1411.93 1548.56 Q1409.51 1546.18 1409.51 1542.04 Q1409.51 1537.01 1413.08 1534.27 Q1416.64 1531.54 1423.2 1531.54 Q1426.45 1531.54 1429.31 1532.01 Q1432.18 1532.49 1434.6 1533.45 Z" fill="#000000" fill-rule="nonzero" fill-opacity="1"></path><polyline clip-path="url(#clip262)" style="stroke:#000000; stroke-linecap:round; stroke-linejoin:round; stroke-width:2; stroke-opacity:0.1; fill:none" points="219.38,1316.63 2352.76,1316.63 "></polyline>
<polyline clip-path="url(#clip262)" style="stroke:#000000; stroke-linecap:round; stroke-linejoin:round; stroke-width:2; stroke-opacity:0.1; fill:none" points="219.38,946.031 2352.76,946.031 "></polyline>
<polyline clip-path="url(#clip262)" style="stroke:#000000; stroke-linecap:round; stroke-linejoin:round; stroke-width:2; stroke-opacity:0.1; fill:none" points="219.38,575.438 2352.76,575.438 "></polyline>
<polyline clip-path="url(#clip262)" style="stroke:#000000; stroke-linecap:round; stroke-linejoin:round; stroke-width:2; stroke-opacity:0.1; fill:none" points="219.38,204.844 2352.76,204.844 "></polyline>
<polyline clip-path="url(#clip260)" style="stroke:#000000; stroke-linecap:round; stroke-linejoin:round; stroke-width:4; stroke-opacity:1; fill:none" points="219.38,1423.18 219.38,47.2441 "></polyline>
<polyline clip-path="url(#clip260)" style="stroke:#000000; stroke-linecap:round; stroke-linejoin:round; stroke-width:4; stroke-opacity:1; fill:none" points="219.38,1316.63 238.278,1316.63 "></polyline>
<polyline clip-path="url(#clip260)" style="stroke:#000000; stroke-linecap:round; stroke-linejoin:round; stroke-width:4; stroke-opacity:1; fill:none" points="219.38,946.031 238.278,946.031 "></polyline>
<polyline clip-path="url(#clip260)" style="stroke:#000000; stroke-linecap:round; stroke-linejoin:round; stroke-width:4; stroke-opacity:1; fill:none" points="219.38,575.438 238.278,575.438 "></polyline>
<polyline clip-path="url(#clip260)" style="stroke:#000000; stroke-linecap:round; stroke-linejoin:round; stroke-width:4; stroke-opacity:1; fill:none" points="219.38,204.844 238.278,204.844 "></polyline>
<path clip-path="url(#clip260)" d="M126.205 1302.42 Q122.593 1302.42 120.765 1305.99 Q118.959 1309.53 118.959 1316.66 Q118.959 1323.77 120.765 1327.33 Q122.593 1330.87 126.205 1330.87 Q129.839 1330.87 131.644 1327.33 Q133.473 1323.77 133.473 1316.66 Q133.473 1309.53 131.644 1305.99 Q129.839 1302.42 126.205 1302.42 M126.205 1298.72 Q132.015 1298.72 135.07 1303.33 Q138.149 1307.91 138.149 1316.66 Q138.149 1325.39 135.07 1329.99 Q132.015 1334.58 126.205 1334.58 Q120.394 1334.58 117.316 1329.99 Q114.26 1325.39 114.26 1316.66 Q114.26 1307.91 117.316 1303.33 Q120.394 1298.72 126.205 1298.72 Z" fill="#000000" fill-rule="nonzero" fill-opacity="1"></path><path clip-path="url(#clip260)" d="M146.366 1328.03 L151.251 1328.03 L151.251 1333.91 L146.366 1333.91 L146.366 1328.03 Z" fill="#000000" fill-rule="nonzero" fill-opacity="1"></path><path clip-path="url(#clip260)" d="M171.436 1302.42 Q167.825 1302.42 165.996 1305.99 Q164.19 1309.53 164.19 1316.66 Q164.19 1323.77 165.996 1327.33 Q167.825 1330.87 171.436 1330.87 Q175.07 1330.87 176.876 1327.33 Q178.704 1323.77 178.704 1316.66 Q178.704 1309.53 176.876 1305.99 Q175.07 1302.42 171.436 1302.42 M171.436 1298.72 Q177.246 1298.72 180.301 1303.33 Q183.38 1307.91 183.38 1316.66 Q183.38 1325.39 180.301 1329.99 Q177.246 1334.58 171.436 1334.58 Q165.626 1334.58 162.547 1329.99 Q159.491 1325.39 159.491 1316.66 Q159.491 1307.91 162.547 1303.33 Q165.626 1298.72 171.436 1298.72 Z" fill="#000000" fill-rule="nonzero" fill-opacity="1"></path><path clip-path="url(#clip260)" d="M127.2 931.83 Q123.589 931.83 121.76 935.395 Q119.955 938.936 119.955 946.066 Q119.955 953.173 121.76 956.737 Q123.589 960.279 127.2 960.279 Q130.834 960.279 132.64 956.737 Q134.468 953.173 134.468 946.066 Q134.468 938.936 132.64 935.395 Q130.834 931.83 127.2 931.83 M127.2 928.126 Q133.01 928.126 136.066 932.733 Q139.144 937.316 139.144 946.066 Q139.144 954.793 136.066 959.399 Q133.01 963.983 127.2 963.983 Q121.39 963.983 118.311 959.399 Q115.256 954.793 115.256 946.066 Q115.256 937.316 118.311 932.733 Q121.39 928.126 127.2 928.126 Z" fill="#000000" fill-rule="nonzero" fill-opacity="1"></path><path clip-path="url(#clip260)" d="M147.362 957.432 L152.246 957.432 L152.246 963.311 L147.362 963.311 L147.362 957.432 Z" fill="#000000" fill-rule="nonzero" fill-opacity="1"></path><path clip-path="url(#clip260)" d="M162.477 928.751 L180.834 928.751 L180.834 932.687 L166.76 932.687 L166.76 941.159 Q167.778 940.811 168.797 940.649 Q169.815 940.464 170.834 940.464 Q176.621 940.464 180.001 943.636 Q183.38 946.807 183.38 952.223 Q183.38 957.802 179.908 960.904 Q176.436 963.983 170.116 963.983 Q167.94 963.983 165.672 963.612 Q163.427 963.242 161.019 962.501 L161.019 957.802 Q163.102 958.936 165.325 959.492 Q167.547 960.047 170.024 960.047 Q174.028 960.047 176.366 957.941 Q178.704 955.835 178.704 952.223 Q178.704 948.612 176.366 946.506 Q174.028 944.399 170.024 944.399 Q168.149 944.399 166.274 944.816 Q164.422 945.233 162.477 946.112 L162.477 928.751 Z" fill="#000000" fill-rule="nonzero" fill-opacity="1"></path><path clip-path="url(#clip260)" d="M117.015 588.782 L124.654 588.782 L124.654 562.417 L116.343 564.083 L116.343 559.824 L124.607 558.158 L129.283 558.158 L129.283 588.782 L136.922 588.782 L136.922 592.718 L117.015 592.718 L117.015 588.782 Z" fill="#000000" fill-rule="nonzero" fill-opacity="1"></path><path clip-path="url(#clip260)" d="M146.366 586.838 L151.251 586.838 L151.251 592.718 L146.366 592.718 L146.366 586.838 Z" fill="#000000" fill-rule="nonzero" fill-opacity="1"></path><path clip-path="url(#clip260)" d="M171.436 561.236 Q167.825 561.236 165.996 564.801 Q164.19 568.343 164.19 575.472 Q164.19 582.579 165.996 586.144 Q167.825 589.685 171.436 589.685 Q175.07 589.685 176.876 586.144 Q178.704 582.579 178.704 575.472 Q178.704 568.343 176.876 564.801 Q175.07 561.236 171.436 561.236 M171.436 557.533 Q177.246 557.533 180.301 562.139 Q183.38 566.722 183.38 575.472 Q183.38 584.199 180.301 588.806 Q177.246 593.389 171.436 593.389 Q165.626 593.389 162.547 588.806 Q159.491 584.199 159.491 575.472 Q159.491 566.722 162.547 562.139 Q165.626 557.533 171.436 557.533 Z" fill="#000000" fill-rule="nonzero" fill-opacity="1"></path><path clip-path="url(#clip260)" d="M118.01 218.189 L125.649 218.189 L125.649 191.823 L117.339 193.49 L117.339 189.23 L125.603 187.564 L130.279 187.564 L130.279 218.189 L137.917 218.189 L137.917 222.124 L118.01 222.124 L118.01 218.189 Z" fill="#000000" fill-rule="nonzero" fill-opacity="1"></path><path clip-path="url(#clip260)" d="M147.362 216.244 L152.246 216.244 L152.246 222.124 L147.362 222.124 L147.362 216.244 Z" fill="#000000" fill-rule="nonzero" fill-opacity="1"></path><path clip-path="url(#clip260)" d="M162.477 187.564 L180.834 187.564 L180.834 191.499 L166.76 191.499 L166.76 199.971 Q167.778 199.624 168.797 199.462 Q169.815 199.277 170.834 199.277 Q176.621 199.277 180.001 202.448 Q183.38 205.619 183.38 211.036 Q183.38 216.615 179.908 219.716 Q176.436 222.795 170.116 222.795 Q167.94 222.795 165.672 222.425 Q163.427 222.054 161.019 221.314 L161.019 216.615 Q163.102 217.749 165.325 218.304 Q167.547 218.86 170.024 218.86 Q174.028 218.86 176.366 216.753 Q178.704 214.647 178.704 211.036 Q178.704 207.425 176.366 205.318 Q174.028 203.212 170.024 203.212 Q168.149 203.212 166.274 203.629 Q164.422 204.045 162.477 204.925 L162.477 187.564 Z" fill="#000000" fill-rule="nonzero" fill-opacity="1"></path><path clip-path="url(#clip260)" d="M14.479 863.481 L14.479 857.625 L64.0042 857.625 L64.0042 863.481 L14.479 863.481 Z" fill="#000000" fill-rule="nonzero" fill-opacity="1"></path><path clip-path="url(#clip260)" d="M32.4621 831.557 Q32.4621 836.268 36.1542 839.005 Q39.8145 841.742 46.212 841.742 Q52.6095 841.742 56.3017 839.037 Q59.9619 836.299 59.9619 831.557 Q59.9619 826.878 56.2698 824.141 Q52.5777 821.404 46.212 821.404 Q39.8781 821.404 36.186 824.141 Q32.4621 826.878 32.4621 831.557 M27.4968 831.557 Q27.4968 823.918 32.4621 819.558 Q37.4273 815.197 46.212 815.197 Q54.9649 815.197 59.9619 819.558 Q64.9272 823.918 64.9272 831.557 Q64.9272 839.228 59.9619 843.588 Q54.9649 847.917 46.212 847.917 Q37.4273 847.917 32.4621 843.588 Q27.4968 839.228 27.4968 831.557 Z" fill="#000000" fill-rule="nonzero" fill-opacity="1"></path><path clip-path="url(#clip260)" d="M45.7664 782.032 Q39.4007 782.032 35.8996 784.674 Q32.3984 787.283 32.3984 792.026 Q32.3984 796.737 35.8996 799.378 Q39.4007 801.988 45.7664 801.988 Q52.1003 801.988 55.6014 799.378 Q59.1026 796.737 59.1026 792.026 Q59.1026 787.283 55.6014 784.674 Q52.1003 782.032 45.7664 782.032 M59.58 776.175 Q68.683 776.175 73.1071 780.218 Q77.5631 784.26 77.5631 792.599 Q77.5631 795.686 77.0857 798.423 Q76.6401 801.161 75.6852 803.739 L69.9879 803.739 Q71.3884 801.161 72.0568 798.646 Q72.7252 796.132 72.7252 793.522 Q72.7252 787.761 69.7015 784.896 Q66.7096 782.032 60.6303 782.032 L57.7339 782.032 Q60.885 783.846 62.4446 786.679 Q64.0042 789.511 64.0042 793.458 Q64.0042 800.015 59.0071 804.025 Q54.01 808.036 45.7664 808.036 Q37.491 808.036 32.4939 804.025 Q27.4968 800.015 27.4968 793.458 Q27.4968 789.511 29.0564 786.679 Q30.616 783.846 33.7671 782.032 L28.3562 782.032 L28.3562 776.175 L59.58 776.175 Z" fill="#000000" fill-rule="nonzero" fill-opacity="1"></path><path clip-path="url(#clip260)" d="M43.5384 767.072 L43.5384 749.917 L48.7583 749.917 L48.7583 767.072 L43.5384 767.072 Z" fill="#000000" fill-rule="nonzero" fill-opacity="1"></path><path clip-path="url(#clip260)" d="M16.4842 740.336 L16.4842 733.907 L58.5933 733.907 L58.5933 710.768 L64.0042 710.768 L64.0042 740.336 L16.4842 740.336 Z" fill="#000000" fill-rule="nonzero" fill-opacity="1"></path><path clip-path="url(#clip260)" d="M32.4621 691.607 Q32.4621 696.318 36.1542 699.055 Q39.8145 701.792 46.212 701.792 Q52.6095 701.792 56.3017 699.087 Q59.9619 696.349 59.9619 691.607 Q59.9619 686.928 56.2698 684.191 Q52.5777 681.454 46.212 681.454 Q39.8781 681.454 36.186 684.191 Q32.4621 686.928 32.4621 691.607 M27.4968 691.607 Q27.4968 683.968 32.4621 679.608 Q37.4273 675.247 46.212 675.247 Q54.9649 675.247 59.9619 679.608 Q64.9272 683.968 64.9272 691.607 Q64.9272 699.278 59.9619 703.638 Q54.9649 707.967 46.212 707.967 Q37.4273 707.967 32.4621 703.638 Q27.4968 699.278 27.4968 691.607 Z" fill="#000000" fill-rule="nonzero" fill-opacity="1"></path><path clip-path="url(#clip260)" d="M29.4065 642.814 L34.9447 642.814 Q33.6716 645.296 33.035 647.97 Q32.3984 650.644 32.3984 653.508 Q32.3984 657.869 33.7352 660.065 Q35.072 662.229 37.7456 662.229 Q39.7826 662.229 40.9603 660.67 Q42.1061 659.11 43.1565 654.399 L43.6021 652.394 Q44.9389 646.156 47.3897 643.546 Q49.8086 640.904 54.1691 640.904 Q59.1344 640.904 62.0308 644.851 Q64.9272 648.766 64.9272 655.641 Q64.9272 658.505 64.3543 661.624 Q63.8132 664.712 62.6992 668.149 L56.6518 668.149 Q58.3387 664.903 59.198 661.752 Q60.0256 658.601 60.0256 655.513 Q60.0256 651.376 58.6251 649.148 Q57.1929 646.92 54.6147 646.92 Q52.2276 646.92 50.9545 648.543 Q49.6813 650.134 48.5037 655.577 L48.0262 657.614 Q46.8804 663.057 44.5251 665.476 Q42.138 667.895 38.0002 667.895 Q32.9713 667.895 30.2341 664.33 Q27.4968 660.765 27.4968 654.208 Q27.4968 650.962 27.9743 648.097 Q28.4517 645.233 29.4065 642.814 Z" fill="#000000" fill-rule="nonzero" fill-opacity="1"></path><path clip-path="url(#clip260)" d="M29.4065 608.853 L34.9447 608.853 Q33.6716 611.335 33.035 614.009 Q32.3984 616.683 32.3984 619.547 Q32.3984 623.908 33.7352 626.104 Q35.072 628.268 37.7456 628.268 Q39.7826 628.268 40.9603 626.708 Q42.1061 625.149 43.1565 620.438 L43.6021 618.433 Q44.9389 612.195 47.3897 609.585 Q49.8086 606.943 54.1691 606.943 Q59.1344 606.943 62.0308 610.89 Q64.9272 614.805 64.9272 621.68 Q64.9272 624.544 64.3543 627.663 Q63.8132 630.751 62.6992 634.188 L56.6518 634.188 Q58.3387 630.942 59.198 627.791 Q60.0256 624.64 60.0256 621.552 Q60.0256 617.415 58.6251 615.187 Q57.1929 612.959 54.6147 612.959 Q52.2276 612.959 50.9545 614.582 Q49.6813 616.173 48.5037 621.616 L48.0262 623.653 Q46.8804 629.096 44.5251 631.515 Q42.138 633.934 38.0002 633.934 Q32.9713 633.934 30.2341 630.369 Q27.4968 626.804 27.4968 620.247 Q27.4968 617.001 27.9743 614.136 Q28.4517 611.272 29.4065 608.853 Z" fill="#000000" fill-rule="nonzero" fill-opacity="1"></path><polyline clip-path="url(#clip262)" style="stroke:#009af9; stroke-linecap:round; stroke-linejoin:round; stroke-width:4; stroke-opacity:1; fill:none" points="279.759,86.1857 283.784,321.728 287.809,631.015 291.834,504.402 295.86,223.42 299.885,401.438 303.91,329.377 307.935,281.849 311.961,302.111 315.986,364.048 320.011,438.132 324.036,380.513 328.062,392.973 332.087,517.831 336.112,470.403 340.137,466.999 344.163,603.054 348.188,506.742 352.213,545.529 356.238,696.565 360.263,849.503 364.289,817.941 368.314,811.095 372.339,798.451 376.364,783.603 380.39,778.275 384.415,787.902 388.44,814.17 392.465,857.503 396.491,914.594 400.516,963.174 404.541,945.878 408.566,882.333 412.592,905.219 416.617,985.302 420.642,1022 424.667,1020.85 428.692,1014.4 432.718,1014.65 436.743,1022.99 440.768,1037.67 444.793,1055.74 448.819,1073.49 452.844,1087.03 456.869,1093.58 460.894,1093.18 464.92,1089.29 468.945,1087.2 472.97,1091.09 476.995,1101.64 481.021,1115.8 485.046,1128.93 489.071,1137.66 493.096,1141.53 497.122,1142.25 501.147,1142.19 505.172,1143.28 509.197,1146.63 513.222,1152.46 517.248,1160.12 521.273,1168.07 525.298,1174.11 529.323,1176.68 533.349,1176.93 537.374,1179.06 541.399,1186.04 545.424,1195.59 549.45,1203.17 553.475,1207.29 557.5,1209.85 561.525,1213.43 565.551,1219.32 569.576,1226.83 573.601,1233.57 577.626,1237.35 581.652,1239.67 585.677,1244.76 589.702,1252.48 593.727,1258.09 597.752,1260.69 601.778,1263.92 605.803,1269.58 609.828,1274.39 613.853,1275.65 617.879,1278.52 621.904,1283.74 625.929,1285.8 629.954,1287.35 633.98,1291.3 638.005,1293.84 642.03,1294.36 646.055,1297.15 650.081,1299.03 654.106,1299.34 658.131,1301.28 662.156,1302.88 666.181,1303.08 670.207,1304.82 674.232,1305.75 678.257,1306.01 682.282,1307.41 686.308,1307.73 690.333,1308.25 694.358,1309.29 698.383,1309.4 702.409,1310.3 706.434,1310.83 710.459,1311.13 714.484,1311.93 718.51,1312.11 722.535,1312.68 726.56,1313.16 730.585,1313.43 734.611,1314.06 738.636,1314.32 742.661,1314.78 746.686,1315.18 750.711,1315.44 754.737,1315.92 758.762,1316.15 762.787,1316.55 766.812,1316.87 770.838,1317.15 774.863,1317.53 778.888,1317.75 782.913,1318.09 786.939,1318.35 790.964,1318.62 794.989,1318.92 799.014,1319.15 803.04,1319.46 807.065,1319.69 811.09,1319.96 815.115,1320.22 819.141,1320.45 823.166,1320.73 827.191,1320.96 831.216,1321.23 835.241,1321.48 839.267,1321.72 843.292,1321.98 847.317,1322.22 851.342,1322.48 855.368,1322.73 859.393,1322.98 863.418,1323.23 867.443,1323.48 871.469,1323.74 875.494,1323.99 879.519,1324.24 883.544,1324.49 887.57,1324.74 891.595,1325 895.62,1325.25 899.645,1325.51 903.67,1325.76 907.696,1326.01 911.721,1326.26 915.746,1326.51 919.771,1326.77 923.797,1327.02 927.822,1327.27 931.847,1327.53 935.872,1327.77 939.898,1328.03 943.923,1328.28 947.948,1328.53 951.973,1328.78 955.999,1329.03 960.024,1329.28 964.049,1329.53 968.074,1329.79 972.1,1330.04 976.125,1330.29 980.15,1330.54 984.175,1330.79 988.2,1331.04 992.226,1331.28 996.251,1331.53 1000.28,1331.78 1004.3,1332.03 1008.33,1332.28 1012.35,1332.53 1016.38,1332.78 1020.4,1333.02 1024.43,1333.27 1028.45,1333.52 1032.48,1333.76 1036.5,1334.01 1040.53,1334.26 1044.55,1334.5 1048.58,1334.75 1052.6,1334.99 1056.63,1335.24 1060.65,1335.48 1064.68,1335.73 1068.71,1335.97 1072.73,1336.21 1076.76,1336.46 1080.78,1336.7 1084.81,1336.94 1088.83,1337.18 1092.86,1337.42 1096.88,1337.66 1100.91,1337.9 1104.93,1338.14 1108.96,1338.38 1112.98,1338.62 1117.01,1338.86 1121.03,1339.1 1125.06,1339.34 1129.08,1339.58 1133.11,1339.81 1137.13,1340.05 1141.16,1340.29 1145.18,1340.52 1149.21,1340.76 1153.24,1340.99 1157.26,1341.23 1161.29,1341.46 1165.31,1341.69 1169.34,1341.93 1173.36,1342.16 1177.39,1342.39 1181.41,1342.62 1185.44,1342.85 1189.46,1343.08 1193.49,1343.31 1197.51,1343.54 1201.54,1343.77 1205.56,1344 1209.59,1344.23 1213.61,1344.45 1217.64,1344.68 1221.66,1344.9 1225.69,1345.13 1229.71,1345.36 1233.74,1345.58 1237.77,1345.8 1241.79,1346.03 1245.82,1346.25 1249.84,1346.47 1253.87,1346.69 1257.89,1346.91 1261.92,1347.13 1265.94,1347.35 1269.97,1347.57 1273.99,1347.79 1278.02,1348.01 1282.04,1348.22 1286.07,1348.44 1290.09,1348.65 1294.12,1348.87 1298.14,1349.08 1302.17,1349.3 1306.19,1349.51 1310.22,1349.72 1314.24,1349.93 1318.27,1350.15 1322.3,1350.36 1326.32,1350.57 1330.35,1350.78 1334.37,1350.98 1338.4,1351.19 1342.42,1351.4 1346.45,1351.61 1350.47,1351.81 1354.5,1352.02 1358.52,1352.22 1362.55,1352.42 1366.57,1352.63 1370.6,1352.83 1374.62,1353.03 1378.65,1353.23 1382.67,1353.44 1386.7,1353.63 1390.72,1353.83 1394.75,1354.03 1398.77,1354.23 1402.8,1354.43 1406.83,1354.62 1410.85,1354.82 1414.88,1355.01 1418.9,1355.21 1422.93,1355.4 1426.95,1355.59 1430.98,1355.79 1435,1355.98 1439.03,1356.17 1443.05,1356.36 1447.08,1356.55 1451.1,1356.74 1455.13,1356.93 1459.15,1357.11 1463.18,1357.3 1467.2,1357.48 1471.23,1357.67 1475.25,1357.85 1479.28,1358.04 1483.3,1358.22 1487.33,1358.4 1491.36,1358.59 1495.38,1358.77 1499.41,1358.95 1503.43,1359.13 1507.46,1359.31 1511.48,1359.48 1515.51,1359.66 1519.53,1359.84 1523.56,1360.02 1527.58,1360.19 1531.61,1360.37 1535.63,1360.54 1539.66,1360.72 1543.68,1360.89 1547.71,1361.06 1551.73,1361.23 1555.76,1361.4 1559.78,1361.57 1563.81,1361.74 1567.83,1361.91 1571.86,1362.08 1575.89,1362.25 1579.91,1362.42 1583.94,1362.58 1587.96,1362.75 1591.99,1362.91 1596.01,1363.08 1600.04,1363.24 1604.06,1363.41 1608.09,1363.57 1612.11,1363.73 1616.14,1363.89 1620.16,1364.05 1624.19,1364.21 1628.21,1364.37 1632.24,1364.53 1636.26,1364.69 1640.29,1364.85 1644.31,1365 1648.34,1365.16 1652.36,1365.32 1656.39,1365.47 1660.42,1365.63 1664.44,1365.78 1668.47,1365.93 1672.49,1366.09 1676.52,1366.24 1680.54,1366.39 1684.57,1366.54 1688.59,1366.69 1692.62,1366.84 1696.64,1366.99 1700.67,1367.14 1704.69,1367.29 1708.72,1367.43 1712.74,1367.58 1716.77,1367.73 1720.79,1367.87 1724.82,1368.02 1728.84,1368.16 1732.87,1368.31 1736.89,1368.45 1740.92,1368.6 1744.95,1368.74 1748.97,1368.88 1753,1369.02 1757.02,1369.16 1761.05,1369.3 1765.07,1369.44 1769.1,1369.58 1773.12,1369.72 1777.15,1369.86 1781.17,1370 1785.2,1370.14 1789.22,1370.27 1793.25,1370.41 1797.27,1370.54 1801.3,1370.68 1805.32,1370.82 1809.35,1370.95 1813.37,1371.08 1817.4,1371.22 1821.42,1371.35 1825.45,1371.48 1829.48,1371.61 1833.5,1371.75 1837.53,1371.88 1841.55,1372.01 1845.58,1372.14 1849.6,1372.27 1853.63,1372.4 1857.65,1372.53 1861.68,1372.66 1865.7,1372.78 1869.73,1372.91 1873.75,1373.04 1877.78,1373.16 1881.8,1373.29 1885.83,1373.42 1889.85,1373.54 1893.88,1373.67 1897.9,1373.79 1901.93,1373.91 1905.95,1374.04 1909.98,1374.16 1914.01,1374.29 1918.03,1374.41 1922.06,1374.53 1926.08,1374.65 1930.11,1374.77 1934.13,1374.89 1938.16,1375.01 1942.18,1375.13 1946.21,1375.25 1950.23,1375.37 1954.26,1375.49 1958.28,1375.61 1962.31,1375.73 1966.33,1375.85 1970.36,1375.96 1974.38,1376.08 1978.41,1376.2 1982.43,1376.31 1986.46,1376.43 1990.48,1376.54 1994.51,1376.66 1998.54,1376.77 2002.56,1376.89 2006.59,1377 2010.61,1377.12 2014.64,1377.23 2018.66,1377.34 2022.69,1377.46 2026.71,1377.57 2030.74,1377.68 2034.76,1377.79 2038.79,1377.91 2042.81,1378.02 2046.84,1378.13 2050.86,1378.24 2054.89,1378.35 2058.91,1378.46 2062.94,1378.57 2066.96,1378.67 2070.99,1378.78 2075.01,1378.89 2079.04,1379 2083.07,1379.11 2087.09,1379.22 2091.12,1379.32 2095.14,1379.43 2099.17,1379.54 2103.19,1379.64 2107.22,1379.75 2111.24,1379.86 2115.27,1379.96 2119.29,1380.07 2123.32,1380.17 2127.34,1380.28 2131.37,1380.38 2135.39,1380.48 2139.42,1380.59 2143.44,1380.69 2147.47,1380.79 2151.49,1380.9 2155.52,1381 2159.54,1381.1 2163.57,1381.2 2167.59,1381.3 2171.62,1381.41 2175.65,1381.51 2179.67,1381.61 2183.7,1381.71 2187.72,1381.81 2191.75,1381.91 2195.77,1382.01 2199.8,1382.11 2203.82,1382.21 2207.85,1382.31 2211.87,1382.41 2215.9,1382.51 2219.92,1382.6 2223.95,1382.7 2227.97,1382.8 2232,1382.9 2236.02,1383 2240.05,1383.09 2244.07,1383.19 2248.1,1383.29 2252.12,1383.38 2256.15,1383.48 2260.18,1383.57 2264.2,1383.67 2268.23,1383.77 2272.25,1383.86 2276.28,1383.96 2280.3,1384.05 2284.33,1384.14 2288.35,1384.24 2292.38,1384.24 "></polyline>
</svg>